<?xml version="1.0" encoding="utf-8"?>
<!-- Generator: Adobe Illustrator 22.0.1, SVG Export Plug-In . SVG Version: 6.00 Build 0)  -->
<svg version="1.1" id="Layer_1" xmlns="http://www.w3.org/2000/svg" xmlns:xlink="http://www.w3.org/1999/xlink" x="0px" y="0px"
	 viewBox="0 0 31.9 30" style="enable-background:new 0 0 31.9 30;" xml:space="preserve">
<style type="text/css">
	.st0{fill:#FFEAFE;}
	.st1{fill:#DF4E4E;}
</style>
<path class="st0" d="M16.5,9.2C12.6,0,1.3,2.1,1.2,12.9c0,6.2,15.4,17.2,15.4,17.2S31.9,19,31.9,12.8C31.8,2,20.3,0.3,16.5,9.2z"/>
<path class="st1" d="M25.1,0c-2.8-0.2-5.3,1.1-7,3.3l3.1,6.2l-4,2l-1,0.5c-0.5,0.3-1,0.5-1,0.6c0,0,0.4,0.5,0.8,1.1l0.9,1l0,0
	l2.9,3.4l-3.7,7.8c5.4-4.2,15.1-9.7,15.8-17.8C32.2,3.9,29.3,0.4,25.1,0z M0.1,8.2C-0.3,4,2.7,0.5,6.9,0.1c2.8-0.2,5.3,1.1,7,3.3
	L18,9l-5.4,4.1l5.5,4.5L15.9,26C10.5,21.8,0.8,16.3,0.1,8.2z"/>
</svg>
