<?xml version="1.0" encoding="utf-8"?>
<!-- Generator: Adobe Illustrator 20.0.0, SVG Export Plug-In . SVG Version: 6.00 Build 0)  -->
<svg version="1.1" id="Layer_1" xmlns="http://www.w3.org/2000/svg" xmlns:xlink="http://www.w3.org/1999/xlink" x="0px" y="0px"
	 viewBox="0 0 258 124" style="enable-background:new 0 0 258 124;" xml:space="preserve">
<style type="text/css">
	.st0{enable-background:new    ;}
</style>
<title>logo_big</title>
<g class="st0">
	<path d="M33.4,52.3c-0.4,2.2-0.8,4.3-1.1,6.4c-0.2,0.7-0.5,1.1-0.8,1.3c-0.4,0.2-1.1,0.2-2.1,0c-1-0.3-2.1-0.6-3-0.8
		c-1-0.3-1.9-0.6-2.6-1c-0.8-0.4-1.3-1-1.7-1.6c-0.4-0.7-0.5-1.5-0.2-2.6c0.4-1,0.7-2.6,1-5c0.3-2.3,0.6-5,0.8-7.9
		c0.2-3,0.5-6,0.7-9.2c0.2-3.2,0.5-6.1,0.7-8.8c0.2-2.7,0.5-5,0.8-6.8c0.3-1.8,0.7-2.8,1.1-3c1.5-0.8,3.2-1.7,5-2.5
		c1.8-0.9,3.7-1.7,5.7-2.4c2-0.7,3.9-1.3,5.9-1.8c2-0.5,3.9-0.7,5.7-0.8c1.8,0,3.6,0.2,5.1,0.6c1.6,0.5,3,1.3,4.1,2.4
		c1.4,1.6,2.6,3.2,3.8,5c1.1,1.8,2,4,2.7,6.5c0.3,1.3,0.4,2.5,0.2,3.6c-0.1,1.1-0.4,2.1-0.9,3.1c-0.5,1-1,1.9-1.7,2.8
		c-0.7,0.9-1.5,1.8-2.3,2.6c-1.4,1.4-3,2.7-4.9,4c-1.9,1.3-4,2.5-6.2,3.7c-2.2,1.1-4.6,2.2-7.1,3.1s-4.9,1.7-7.3,2.4
		C34.2,47.8,33.8,50.1,33.4,52.3z M44.8,30.6c2.1-1.3,3.9-2.7,5.2-4.1c1.4-1.4,2.3-2.8,2.9-4.1c0.6-1.3,0.7-2.4,0.4-3.3
		c-0.1-0.5-0.6-0.9-1.3-1.1c-0.7-0.3-1.7-0.4-2.8-0.3c-1.1,0-2.4,0.2-3.8,0.6c-1.4,0.3-2.9,0.8-4.4,1.5c-0.6,2.2-1.3,4.5-1.8,6.9
		c-0.6,2.4-1.2,4.8-1.8,7.4C40.2,33.1,42.6,32,44.8,30.6z"/>
	<path d="M86.7,12c0.2,0.6,0.2,1.4-0.1,2.5c-0.6,1.8-1.2,3.9-1.8,6.3c-0.7,2.4-1.3,4.9-2,7.5s-1.3,5.3-2,8.1
		c-0.6,2.8-1.3,5.5-1.9,8.1s-1.2,5.1-1.7,7.5c-0.5,2.4-0.9,4.4-1.3,6.3c-0.2,0.7-0.5,1.1-0.8,1.3c-0.3,0.2-1,0.2-2.1-0.1
		c-1-0.3-2-0.6-3-0.9c-0.9-0.3-1.8-0.7-2.7-1.1c-0.9-0.4-1.5-1-1.8-1.6c-0.3-0.6-0.4-1.4-0.3-2.5c0.1-1.4,0.3-3.3,0.5-5.5
		c0.3-2.3,0.6-4.8,1-7.5c0.4-2.7,0.8-5.5,1.3-8.5c0.5-3,1-5.9,1.5-8.8c0.5-2.9,1-5.6,1.5-8.1c0.5-2.6,1-4.8,1.4-6.7
		c0.4-1.2,0.9-1.9,1.5-2.2c0.6-0.3,1.6-0.2,2.8,0.2c1.2,0.3,2.6,0.8,4,1.5c1.4,0.7,2.7,1.3,3.8,2.1C85.8,10.8,86.5,11.5,86.7,12z"/>
	<path d="M115.8,13.3c2.1-2.7,4-5.1,5.7-7c0.8-0.9,1.6-1.4,2.5-1.4c0.4,0,0.9,0.1,1.3,0.2c0.4,0.2,0.9,0.4,1.3,0.7
		c0.9,0.7,1.8,1.6,2.7,2.7c0.9,1,1.6,2,2.2,2.9c0.7,1.1,0.9,2.1,0.7,3.1c-0.2,0.9-0.7,1.8-1.4,2.7c-2.2,2.6-4.6,5.5-7.4,8.8
		c-2.8,3.3-5.7,6.7-8.7,10.3c1.7,4.1,3.3,7.9,4.7,11.4c1.5,3.5,2.8,6.7,3.9,9.4c0.9,1.4,0.5,2.3-1.3,2.5c-2,0.2-4.1,0.2-6.3,0
		c-1.1-0.1-1.9-0.4-2.5-0.8c-0.6-0.4-1.2-1.1-1.9-2.1c-0.5-0.7-1.2-2-2.1-3.9c-0.9-1.9-2.1-4.2-3.3-7c-2.2,2.7-4.1,5.2-5.9,7.5
		c-1.7,2.4-3.3,4.4-4.7,6.1c-1,1.2-2.2,1.3-3.8,0.3c-0.6-0.3-1.2-0.7-1.8-1.2c-0.6-0.5-1.3-1-1.8-1.6c-0.6-0.6-1.1-1.1-1.5-1.6
		c-0.4-0.5-0.6-1-0.7-1.3c0-0.3,0.1-0.6,0.2-1c0.1-0.4,0.3-0.8,0.6-1.3c1.4-2.3,3.3-5.1,5.6-8.4c2.3-3.3,4.9-6.8,7.8-10.5
		c-1-2.1-1.9-4.2-2.9-6.3c-1-2.1-1.9-4.1-2.7-6.1c-0.9-2-1.7-3.8-2.4-5.5c-0.7-1.7-1.4-3.2-1.9-4.5c-0.5-1.3-0.6-2.2-0.4-2.7
		c0.2-0.5,0.9-0.8,2.1-1c0.3,0,0.6-0.1,0.9-0.1c0.3,0,0.6,0,0.9,0h1.7c0.6,0,1.2,0,1.9,0c0.6,0,1.3,0.1,2,0.1
		c1.4,0.2,2.5,0.7,3.2,1.4c0.8,0.7,1.4,1.7,2,2.9c0.6,1.7,1.4,3.5,2.1,5.4c0.8,1.9,1.6,3.9,2.4,6C111.5,19.1,113.7,16.1,115.8,13.3z
		"/>
	<path d="M144.5,8.3c2.1-0.5,4.3-0.9,6.6-1.3c2.3-0.4,4.7-0.8,7.1-1.1c2.4-0.3,4.8-0.5,7.2-0.6c2.3,0,3.7,0.9,4.4,2.7
		c0.5,1,0.9,1.9,1.1,2.7c0.2,0.8,0.4,1.7,0.6,2.6c0.2,1.1,0.1,1.8-0.2,2.1c-0.3,0.4-1.1,0.6-2.2,0.8c-2.4,0.3-4.9,0.6-7.5,0.9
		c-2.6,0.3-5.3,0.6-8.1,1c-0.6,1.8-1.2,3.8-1.7,5.7c-0.5,2-1.1,4.1-1.7,6.2c1.2-0.2,2.4-0.3,3.6-0.4c1.2-0.1,2.5-0.1,3.8-0.2
		c1.1,0,2,0.1,2.6,0.3c0.6,0.2,1.2,0.8,1.6,1.6c0.5,0.8,0.9,1.6,1.1,2.4s0.5,1.6,0.7,2.4c0.3,0.9,0.4,1.6,0.1,1.9
		c-0.3,0.3-1,0.6-2.1,0.9c-2.4,0.5-4.9,0.9-7.4,1.3c-2.5,0.4-4.9,0.9-7.2,1.3c-0.3,1.3-0.6,2.5-0.9,3.7c-0.3,1.2-0.6,2.3-0.9,3.5
		c1.9-0.3,3.7-0.6,5.4-0.8c1.7-0.2,3.6-0.4,5.6-0.5c1.1-0.1,2,0,2.6,0.2s1.2,0.7,1.6,1.5c0.5,0.8,0.9,1.6,1.1,2.3
		c0.3,0.7,0.6,1.4,0.9,2.2c0.2,0.8,0.2,1.4,0,1.7c-0.2,0.3-0.8,0.6-1.9,0.8c-2.6,0.5-5.2,1-7.8,1.5c-2.6,0.5-5.2,1-7.6,1.5
		c-1.6,0.4-2.8,0.5-3.6,0.3c-0.8-0.2-1.5-0.5-2.1-1c-0.7-0.4-1.3-0.9-2-1.4c-0.6-0.5-1.4-1.1-2.2-1.8c-0.7-0.6-1.2-1.2-1.6-2
		c-0.4-0.8-0.5-1.7-0.5-2.8l5.7-40.8C140.5,9.3,142.4,8.8,144.5,8.3z"/>
	<path d="M189.2,57.7c-2.7,0.5-5.2,1-7.6,1.5c-0.9,0.2-1.6,0.4-2.2,0.4c-0.6,0-1.1,0-1.6-0.1c-0.4-0.1-0.8-0.2-1.1-0.4
		c-0.3-0.2-0.6-0.3-0.9-0.6c-0.7-0.4-1.3-0.9-1.9-1.4c-0.6-0.5-1.3-1.1-2.2-1.8c-0.7-0.6-1.2-1.2-1.6-1.9c-0.4-0.7-0.5-1.6-0.3-2.6
		c0.1-1.6,0.3-3.5,0.6-5.7c0.3-2.2,0.6-4.5,1-7.1c0.4-2.5,0.8-5.2,1.3-7.9c0.5-2.7,1-5.4,1.6-8.1c0.6-2.7,1.1-5.3,1.7-7.8
		c0.6-2.5,1.2-4.8,1.7-6.9c0.4-1.2,0.9-1.9,1.5-2.1c0.6-0.2,1.6-0.2,2.8,0.2c1.2,0.3,2.6,0.8,4,1.4c1.4,0.6,2.7,1.3,3.8,2
		c1,0.8,1.7,1.5,2,2c0.3,0.6,0.2,1.4-0.2,2.5c-0.8,2.5-1.6,5.2-2.4,8.1c-0.8,2.9-1.6,6-2.5,9.1c-0.8,3.1-1.6,6.2-2.3,9.3
		c-0.7,3.1-1.4,6-2.1,8.9c1.8-0.3,3.6-0.6,5.2-0.7c1.6-0.2,3.3-0.3,5.2-0.4c1.1-0.1,2,0,2.6,0.2c0.6,0.2,1.1,0.7,1.6,1.5
		c0.5,0.7,0.9,1.5,1.2,2.2c0.3,0.8,0.5,1.5,0.7,2.2c0.3,0.9,0.4,1.4,0.2,1.7c-0.1,0.3-0.8,0.6-2.1,0.8
		C194.4,56.7,191.8,57.2,189.2,57.7z"/>
</g>
<g class="st0">
	<path d="M11.9,67c2.1-0.5,4.3-0.9,6.6-1.3c2.3-0.4,4.7-0.8,7.1-1.1c2.4-0.3,4.8-0.5,7.2-0.6c2.3,0,3.7,0.9,4.4,2.7
		c0.5,1,0.9,1.9,1.1,2.7c0.2,0.8,0.4,1.7,0.6,2.6c0.2,1.1,0.1,1.8-0.2,2.1c-0.3,0.4-1.1,0.6-2.2,0.8c-2.4,0.3-4.9,0.6-7.5,0.9
		c-2.6,0.3-5.3,0.6-8.1,1c-0.6,1.8-1.2,3.8-1.7,5.7c-0.5,2-1.1,4.1-1.7,6.2c1.2-0.2,2.4-0.3,3.6-0.4c1.2-0.1,2.5-0.1,3.8-0.2
		c1.1,0,2,0.1,2.6,0.3c0.6,0.2,1.2,0.8,1.6,1.6c0.5,0.8,0.9,1.6,1.1,2.4c0.3,0.8,0.5,1.6,0.7,2.4c0.3,0.9,0.4,1.6,0.1,1.9
		c-0.3,0.3-1,0.6-2.1,0.9c-2.4,0.5-4.9,0.9-7.4,1.3c-2.5,0.4-4.9,0.9-7.2,1.3c-0.3,1.3-0.6,2.5-0.9,3.7c-0.3,1.2-0.6,2.3-0.9,3.5
		c1.9-0.3,3.7-0.6,5.4-0.8c1.7-0.2,3.6-0.4,5.6-0.5c1.1-0.1,2,0,2.6,0.2c0.6,0.2,1.2,0.7,1.6,1.5c0.5,0.8,0.9,1.6,1.1,2.3
		c0.3,0.7,0.6,1.4,0.9,2.2c0.2,0.8,0.2,1.4,0,1.7c-0.2,0.3-0.8,0.6-1.9,0.8c-2.6,0.5-5.2,1-7.8,1.5c-2.6,0.5-5.2,1-7.6,1.5
		c-1.6,0.4-2.8,0.5-3.6,0.3c-0.8-0.2-1.5-0.5-2.1-1c-0.7-0.4-1.3-0.9-2-1.4c-0.6-0.5-1.4-1.1-2.2-1.8c-0.7-0.6-1.2-1.2-1.6-2
		c-0.4-0.8-0.5-1.7-0.5-2.8l5.7-40.8C7.9,68,9.8,67.5,11.9,67z"/>
	<path d="M66.4,72c2.1-2.7,4-5.1,5.7-7c0.8-0.9,1.6-1.4,2.5-1.4c0.4,0,0.9,0.1,1.3,0.2c0.4,0.2,0.9,0.4,1.3,0.7
		c0.9,0.7,1.8,1.6,2.7,2.7c0.9,1,1.6,2,2.2,2.9c0.7,1.1,0.9,2.1,0.7,3.1c-0.2,0.9-0.7,1.8-1.4,2.7c-2.2,2.6-4.6,5.5-7.4,8.8
		c-2.8,3.3-5.7,6.7-8.7,10.3c1.7,4.1,3.3,7.9,4.7,11.4c1.5,3.5,2.8,6.7,3.9,9.4c0.9,1.4,0.5,2.3-1.3,2.5c-2,0.2-4.1,0.2-6.3,0
		c-1.1-0.1-1.9-0.4-2.5-0.8c-0.6-0.4-1.2-1.1-1.9-2.1c-0.5-0.7-1.2-2-2.1-3.9c-0.9-1.9-2.1-4.2-3.3-7c-2.2,2.7-4.1,5.2-5.9,7.5
		c-1.7,2.4-3.3,4.4-4.7,6.1c-1,1.2-2.2,1.3-3.8,0.3c-0.6-0.3-1.2-0.7-1.8-1.2c-0.6-0.5-1.3-1-1.8-1.6c-0.6-0.6-1.1-1.1-1.5-1.6
		c-0.4-0.5-0.6-1-0.7-1.3c0-0.3,0.1-0.6,0.2-1c0.1-0.4,0.3-0.8,0.6-1.3c1.4-2.3,3.3-5.1,5.6-8.4c2.3-3.3,4.9-6.8,7.8-10.5
		c-1-2.1-1.9-4.2-2.9-6.3c-1-2.1-1.9-4.1-2.7-6.1c-0.9-2-1.7-3.8-2.4-5.5c-0.7-1.7-1.4-3.2-1.9-4.5c-0.5-1.3-0.6-2.2-0.4-2.7
		c0.2-0.5,0.9-0.8,2.1-1c0.3,0,0.6-0.1,0.9-0.1c0.3,0,0.6,0,0.9,0h1.7c0.6,0,1.2,0,1.9,0c0.6,0,1.3,0.1,2,0.1
		c1.4,0.2,2.5,0.7,3.2,1.4c0.8,0.7,1.4,1.7,2,2.9c0.6,1.7,1.4,3.5,2.1,5.4s1.6,3.9,2.4,6C62,77.7,64.3,74.7,66.4,72z"/>
	<path d="M96.6,110.9c-0.4,2.2-0.8,4.3-1.1,6.4c-0.2,0.7-0.5,1.1-0.8,1.3c-0.4,0.2-1.1,0.2-2.1,0c-1-0.3-2.1-0.6-3-0.8
		c-1-0.3-1.9-0.6-2.6-1c-0.8-0.4-1.3-1-1.7-1.6c-0.4-0.7-0.5-1.5-0.2-2.6c0.4-1,0.7-2.6,1-5c0.3-2.3,0.6-5,0.8-7.9
		c0.2-3,0.5-6,0.7-9.2s0.5-6.1,0.7-8.8c0.2-2.7,0.5-5,0.8-6.8c0.3-1.8,0.7-2.8,1.1-3c1.5-0.8,3.2-1.7,5-2.5c1.8-0.9,3.7-1.7,5.7-2.4
		c2-0.7,3.9-1.3,5.9-1.8c2-0.5,3.9-0.7,5.7-0.8c1.8,0,3.6,0.2,5.1,0.6c1.6,0.5,3,1.3,4.1,2.4c1.4,1.6,2.6,3.2,3.8,5
		c1.1,1.8,2,4,2.7,6.5c0.3,1.3,0.4,2.5,0.2,3.6c-0.1,1.1-0.4,2.1-0.9,3.1c-0.5,1-1,1.9-1.7,2.8c-0.7,0.9-1.5,1.8-2.3,2.6
		c-1.4,1.4-3,2.7-4.9,4c-1.9,1.3-4,2.5-6.2,3.7c-2.2,1.1-4.6,2.2-7.1,3.1c-2.5,0.9-4.9,1.7-7.3,2.4C97.5,106.5,97,108.7,96.6,110.9z
		 M108,89.3c2.1-1.3,3.9-2.7,5.2-4.1c1.4-1.4,2.3-2.8,2.9-4.1c0.6-1.3,0.7-2.4,0.4-3.3c-0.1-0.5-0.6-0.9-1.3-1.1
		c-0.7-0.3-1.7-0.4-2.8-0.3c-1.1,0-2.4,0.2-3.8,0.6c-1.4,0.3-2.9,0.8-4.4,1.5c-0.6,2.2-1.3,4.5-1.8,6.9c-0.6,2.4-1.2,4.8-1.8,7.4
		C103.4,91.7,105.9,90.6,108,89.3z"/>
	<path d="M140.5,67c2.1-0.5,4.3-0.9,6.6-1.3c2.3-0.4,4.7-0.8,7.1-1.1s4.8-0.5,7.2-0.6c2.3,0,3.7,0.9,4.4,2.7c0.5,1,0.9,1.9,1.1,2.7
		c0.2,0.8,0.4,1.7,0.6,2.6c0.2,1.1,0.1,1.8-0.2,2.1c-0.3,0.4-1.1,0.6-2.2,0.8c-2.4,0.3-4.9,0.6-7.5,0.9c-2.6,0.3-5.3,0.6-8.1,1
		c-0.6,1.8-1.2,3.8-1.7,5.7c-0.5,2-1.1,4.1-1.7,6.2c1.2-0.2,2.4-0.3,3.6-0.4c1.2-0.1,2.5-0.1,3.8-0.2c1.1,0,2,0.1,2.6,0.3
		c0.6,0.2,1.2,0.8,1.6,1.6c0.5,0.8,0.9,1.6,1.1,2.4c0.3,0.8,0.5,1.6,0.7,2.4c0.3,0.9,0.4,1.6,0.1,1.9c-0.3,0.3-1,0.6-2.1,0.9
		c-2.4,0.5-4.9,0.9-7.4,1.3c-2.5,0.4-4.9,0.9-7.2,1.3c-0.3,1.3-0.6,2.5-0.9,3.7c-0.3,1.2-0.6,2.3-0.9,3.5c1.9-0.3,3.7-0.6,5.4-0.8
		c1.7-0.2,3.6-0.4,5.6-0.5c1.1-0.1,2,0,2.6,0.2s1.2,0.7,1.6,1.5c0.5,0.8,0.9,1.6,1.1,2.3c0.3,0.7,0.6,1.4,0.9,2.2
		c0.2,0.8,0.2,1.4,0,1.7c-0.2,0.3-0.8,0.6-1.9,0.8c-2.6,0.5-5.2,1-7.8,1.5c-2.6,0.5-5.2,1-7.6,1.5c-1.6,0.4-2.8,0.5-3.6,0.3
		c-0.8-0.2-1.5-0.5-2.1-1c-0.7-0.4-1.3-0.9-2-1.4c-0.6-0.5-1.4-1.1-2.2-1.8c-0.7-0.6-1.2-1.2-1.6-2c-0.4-0.8-0.5-1.7-0.5-2.8
		l5.7-40.8C136.5,68,138.4,67.5,140.5,67z"/>
	<path d="M179.3,110.2c-0.5,2.3-0.9,4.5-1.4,6.7c-0.2,0.7-0.5,1.1-0.8,1.3c-0.3,0.2-1,0.2-1.9,0c-1.1-0.3-2-0.5-2.9-0.7
		s-1.6-0.4-2.4-0.9c-0.8-0.4-1.3-1-1.6-1.6c-0.3-0.6-0.4-1.5-0.3-2.5c0.1-0.9,0.2-2.1,0.3-3.7c0.1-1.6,0.3-3.5,0.5-5.6
		c0.2-2.1,0.4-4.3,0.7-6.7c0.3-2.4,0.5-4.7,0.8-7.1c0.3-2.4,0.6-4.7,1-6.9c0.4-2.2,0.7-4.2,1.1-6c0.4-1.8,0.8-3.2,1.3-4.4
		c0.5-1.2,1-1.9,1.5-2.2c2.5-1.1,5.1-2.3,7.8-3.4c2.7-1.1,5.4-1.9,8-2.4c2.6-0.5,5.1-0.5,7.5-0.1c2.3,0.4,4.4,1.5,6.2,3.2
		c1.4,1.6,2.7,3.2,3.8,5c1.1,1.8,2,4,2.7,6.5c0.5,2.7,0.3,5-0.6,6.7c-1.4,2.8-3.7,5.4-6.9,7.8c-3.2,2.4-7.1,4.6-11.6,6.6
		c0.9,1.1,1.9,2.2,3,3.4c1.1,1.2,2.2,2.4,3.4,3.6c1.2,1.2,2.3,2.3,3.5,3.4c1.1,1.1,2.2,2.1,3.2,2.9c0.8,0.7,1.2,1.2,1.1,1.7
		c-0.1,0.4-0.4,0.8-1,1.3c-0.7,0.6-1.3,0.9-1.8,1c-0.5,0.1-1.1,0.2-1.8,0.3c-0.9,0.2-1.9,0.3-2.9,0.2c-1.1-0.1-2.3-0.6-3.7-1.4
		c-0.9-0.7-2-1.5-3.2-2.5s-2.4-2.1-3.7-3.2c-1.3-1.2-2.6-2.4-3.8-3.7c-1.3-1.3-2.4-2.6-3.5-3.9C180.3,105.5,179.8,107.9,179.3,110.2
		z M185.4,84.8c-0.6,2.4-1.3,4.9-2,7.6c2.8-0.9,5.2-2.1,7.4-3.5c2.1-1.4,3.9-2.8,5.4-4.2c1.4-1.4,2.5-2.8,3.1-4
		c0.6-1.3,0.8-2.2,0.6-2.9c-0.5-1.1-1.9-1.7-4.3-1.7c-1.2,0-2.4,0.1-3.8,0.4c-1.4,0.3-2.9,0.8-4.4,1.6
		C186.6,80.2,186,82.4,185.4,84.8z"/>
	<path d="M250.1,74.8c-1.8,0.2-3.7,0.4-5.7,0.6c-0.8,3.4-1.7,7-2.6,10.7s-1.8,7.3-2.6,10.9c-0.8,3.6-1.6,7.1-2.4,10.6
		c-0.7,3.4-1.4,6.6-2,9.6c-0.1,0.6-0.3,1-0.6,1.1c-0.3,0.2-0.7,0.3-1.2,0.2c-0.5,0-1.1-0.1-1.8-0.3c-0.7-0.2-1.4-0.4-2.3-0.7
		c-0.8-0.2-1.6-0.5-2.3-0.8c-0.7-0.3-1.3-0.6-1.7-1c-0.5-0.4-0.8-0.9-1-1.4c-0.2-0.6-0.2-1.2-0.1-2c0.1-2,0.4-4.4,0.7-7.2
		s0.8-5.9,1.3-9.1s1.1-6.4,1.7-9.7c0.6-3.3,1.2-6.3,1.8-9c-1.2,0.2-2.3,0.4-3.4,0.5c-1.1,0.1-2,0.3-2.7,0.5c-1,0.2-1.8,0.3-2.5,0.1
		s-1.4-0.7-2.2-1.6c-0.8-0.9-1.6-1.9-2.3-3.3c-0.7-1.3-1.3-2.4-1.7-3.3c-0.5-0.9-0.6-1.6-0.4-1.9c0.2-0.3,0.7-0.6,1.5-0.8
		c2.4-0.5,5-0.9,8-1.3c3-0.4,6-0.8,9.1-1.1c3.1-0.3,6.2-0.6,9.1-0.8c3-0.2,5.7-0.4,8-0.5c1.2,0,2.1,0.1,2.7,0.3
		c0.5,0.2,1,0.6,1.4,1.1c0.8,0.9,1.5,2,2,3.1c0.5,1.1,0.9,2.2,1.2,3.2c0.2,0.9,0.2,1.6,0,1.9c-0.2,0.3-1,0.6-2.2,0.6
		C253.6,74.5,251.9,74.6,250.1,74.8z"/>
</g>
</svg>
