<?xml version="1.0" encoding="utf-8"?>
<!-- Generator: Adobe Illustrator 20.0.0, SVG Export Plug-In . SVG Version: 6.00 Build 0)  -->
<svg version="1.1" id="Layer_1" xmlns="http://www.w3.org/2000/svg" xmlns:xlink="http://www.w3.org/1999/xlink" x="0px" y="0px"
	 viewBox="0 0 82.2 48.7" style="enable-background:new 0 0 82.2 48.7;" xml:space="preserve">
<style type="text/css">
	.st0{enable-background:new    ;}
	.st1{fill:#FFFFFF;}
</style>
<title>logo_small</title>
<g class="st0">
	<path class="st1" d="M4.4,16.9C4.3,17.6,4.2,18.3,4,19c-0.1,0.2-0.2,0.4-0.3,0.4c-0.1,0.1-0.4,0.1-0.7,0c-0.4-0.1-0.7-0.2-1-0.3
		c-0.3-0.1-0.6-0.2-0.9-0.3s-0.5-0.3-0.6-0.5c-0.1-0.2-0.2-0.5-0.1-0.9c0.1-0.3,0.2-0.9,0.3-1.7s0.2-1.7,0.3-2.6
		c0.1-1,0.2-2,0.2-3.1s0.2-2,0.2-2.9s0.2-1.6,0.3-2.3s0.2-0.9,0.4-1C2.7,3.6,3.3,3.3,3.9,3c0.6-0.3,1.3-0.6,1.9-0.8
		c0.7-0.2,1.3-0.4,2-0.6s1.3-0.2,1.9-0.3c0.6,0,1.2,0.1,1.7,0.2s1,0.4,1.4,0.8c0.5,0.5,0.9,1.1,1.3,1.7c0.4,0.6,0.7,1.3,0.9,2.2
		c0.1,0.4,0.1,0.8,0.1,1.2c0,0.4-0.1,0.7-0.3,1c-0.2,0.3-0.4,0.6-0.6,0.9c-0.2,0.3-0.5,0.6-0.8,0.9c-0.5,0.5-1,0.9-1.7,1.3
		s-1.3,0.8-2.1,1.2c-0.8,0.4-1.6,0.7-2.4,1c-0.8,0.3-1.7,0.6-2.5,0.8C4.7,15.4,4.6,16.2,4.4,16.9z M8.3,9.7C9,9.2,9.6,8.8,10.1,8.3
		s0.8-0.9,1-1.4c0.2-0.4,0.2-0.8,0.1-1.1c0-0.2-0.2-0.3-0.4-0.4c-0.3-0.1-0.6-0.1-1-0.1c-0.4,0-0.8,0.1-1.3,0.2C8,5.7,7.5,5.8,7,6.1
		C6.8,6.8,6.6,7.5,6.4,8.3C6.2,9.1,6,9.9,5.8,10.8C6.7,10.5,7.6,10.1,8.3,9.7z"/>
	<path class="st1" d="M21.5,3.5c0.1,0.2,0.1,0.5,0,0.8c-0.2,0.6-0.4,1.3-0.6,2.1s-0.4,1.6-0.7,2.5s-0.4,1.8-0.7,2.7
		s-0.4,1.8-0.6,2.7c-0.2,0.9-0.4,1.7-0.6,2.5c-0.2,0.8-0.3,1.5-0.4,2.1c-0.1,0.2-0.2,0.4-0.3,0.4c-0.1,0.1-0.3,0.1-0.7,0
		c-0.4-0.1-0.7-0.2-1-0.3s-0.6-0.2-0.9-0.4c-0.3-0.1-0.5-0.3-0.6-0.5c-0.1-0.2-0.1-0.5-0.1-0.8c0-0.5,0.1-1.1,0.2-1.8
		s0.2-1.6,0.3-2.5c0.1-0.9,0.3-1.8,0.4-2.8c0.2-1,0.3-2,0.5-2.9c0.2-1,0.3-1.9,0.5-2.7c0.2-0.8,0.3-1.6,0.5-2.2
		c0.1-0.4,0.3-0.6,0.5-0.7c0.2-0.1,0.5-0.1,0.9,0.1c0.4,0.1,0.9,0.3,1.4,0.5c0.5,0.2,0.9,0.4,1.3,0.7C21.2,3.1,21.4,3.3,21.5,3.5z"
		/>
	<path class="st1" d="M30.4,3.9c0.7-0.9,1.4-1.7,1.9-2.3c0.3-0.3,0.6-0.5,0.8-0.5c0.1,0,0.3,0,0.4,0.1c0.1,0.1,0.3,0.1,0.4,0.2
		C34.3,1.7,34.7,2,35,2.3s0.5,0.7,0.7,1c0.2,0.4,0.3,0.7,0.2,1s-0.2,0.6-0.5,0.9c-0.7,0.9-1.6,1.8-2.5,2.9C32,9.2,31,10.4,30,11.6
		c0.6,1.4,1.1,2.6,1.6,3.8c0.5,1.2,0.9,2.2,1.3,3.1c0.3,0.5,0.2,0.8-0.4,0.8c-0.7,0.1-1.4,0.1-2.1,0c-0.4,0-0.7-0.1-0.9-0.3
		s-0.4-0.4-0.7-0.7c-0.2-0.2-0.4-0.7-0.7-1.3c-0.3-0.6-0.7-1.4-1.1-2.3c-0.7,0.9-1.4,1.7-2,2.5c-0.6,0.8-1.1,1.5-1.6,2
		c-0.3,0.4-0.8,0.4-1.3,0.1c-0.2-0.1-0.4-0.2-0.6-0.4s-0.4-0.3-0.6-0.5c-0.2-0.2-0.4-0.4-0.5-0.5c-0.1-0.2-0.2-0.3-0.2-0.4
		c0-0.1,0-0.2,0.1-0.3c0-0.1,0.1-0.3,0.2-0.4c0.5-0.8,1.1-1.7,1.9-2.8c0.8-1.1,1.7-2.3,2.6-3.5c-0.3-0.7-0.7-1.4-1-2.1
		c-0.3-0.7-0.6-1.4-0.9-2c-0.3-0.7-0.6-1.3-0.8-1.8c-0.3-0.6-0.5-1.1-0.6-1.5c-0.2-0.4-0.2-0.7-0.1-0.9s0.3-0.3,0.7-0.3
		c0.1,0,0.2,0,0.3,0s0.2,0,0.3,0h0.6c0.2,0,0.4,0,0.6,0s0.4,0,0.7,0c0.5,0.1,0.8,0.2,1.1,0.5c0.3,0.2,0.5,0.6,0.7,0.9
		c0.2,0.6,0.5,1.2,0.7,1.8c0.3,0.6,0.5,1.3,0.8,2C28.9,5.8,29.7,4.8,30.4,3.9z"/>
	<path class="st1" d="M39.1,2.3c0.7-0.2,1.5-0.3,2.2-0.4s1.6-0.3,2.4-0.4c0.8-0.1,1.6-0.2,2.5-0.2c0.8,0,1.3,0.3,1.5,0.9
		c0.2,0.3,0.3,0.6,0.4,0.9c0.1,0.3,0.1,0.6,0.2,0.9c0.1,0.4,0,0.6-0.1,0.7s-0.4,0.2-0.8,0.3c-0.8,0.1-1.7,0.2-2.5,0.3
		c-0.9,0.1-1.8,0.2-2.8,0.3c-0.2,0.6-0.4,1.2-0.6,1.9c-0.2,0.7-0.4,1.3-0.6,2.1c0.4-0.1,0.8-0.1,1.2-0.1c0.4,0,0.8,0,1.3-0.1
		c0.4,0,0.7,0,0.9,0.1c0.2,0.1,0.4,0.3,0.6,0.5c0.2,0.3,0.3,0.5,0.4,0.8c0.1,0.3,0.2,0.5,0.2,0.8c0.1,0.3,0.1,0.5,0,0.6
		c-0.1,0.1-0.3,0.2-0.7,0.3c-0.8,0.1-1.6,0.3-2.5,0.4c-0.8,0.1-1.7,0.3-2.5,0.4c-0.1,0.4-0.2,0.8-0.3,1.2c-0.1,0.4-0.2,0.8-0.3,1.2
		c0.6-0.1,1.2-0.2,1.8-0.3c0.6-0.1,1.2-0.1,1.9-0.2c0.4,0,0.7,0,0.9,0.1c0.2,0.1,0.4,0.2,0.5,0.5c0.2,0.3,0.3,0.5,0.4,0.8
		c0.1,0.2,0.2,0.5,0.3,0.7c0.1,0.3,0.1,0.5,0,0.6c-0.1,0.1-0.3,0.2-0.7,0.3c-0.9,0.2-1.8,0.3-2.6,0.5s-1.8,0.3-2.6,0.5
		c-0.5,0.1-1,0.2-1.2,0.1c-0.3-0.1-0.5-0.2-0.7-0.3c-0.2-0.1-0.5-0.3-0.7-0.5c-0.2-0.2-0.5-0.4-0.7-0.6c-0.2-0.2-0.4-0.4-0.5-0.7
		s-0.2-0.6-0.2-0.9l1.9-13.5C37.7,2.6,38.4,2.4,39.1,2.3z"/>
	<path class="st1" d="M53.2,18.7c-0.9,0.2-1.8,0.3-2.6,0.5c-0.3,0.1-0.5,0.1-0.8,0.1s-0.4,0-0.5,0c-0.2,0-0.3-0.1-0.4-0.1
		c-0.1-0.1-0.2-0.1-0.3-0.2c-0.2-0.1-0.4-0.3-0.6-0.5c-0.2-0.2-0.4-0.4-0.8-0.6c-0.2-0.2-0.4-0.4-0.5-0.6c-0.1-0.2-0.2-0.5-0.1-0.9
		c0-0.5,0.1-1.2,0.2-1.9c0.1-0.7,0.2-1.5,0.3-2.4c0.1-0.8,0.3-1.7,0.4-2.6s0.3-1.8,0.5-2.7c0.2-0.9,0.4-1.8,0.6-2.6
		C49,3.4,49.2,2.7,49.4,2c0.1-0.4,0.3-0.6,0.5-0.7c0.2-0.1,0.5-0.1,0.9,0.1c0.4,0.1,0.9,0.3,1.4,0.5c0.5,0.2,0.9,0.4,1.3,0.7
		c0.4,0.3,0.6,0.5,0.7,0.7c0.1,0.2,0.1,0.5-0.1,0.8c-0.3,0.8-0.5,1.7-0.8,2.7c-0.3,1-0.6,2-0.8,3c-0.3,1-0.5,2.1-0.8,3.1
		c-0.3,1-0.5,2-0.7,2.9c0.6-0.1,1.2-0.2,1.8-0.2s1.1-0.1,1.8-0.1c0.4,0,0.7,0,0.9,0.1s0.4,0.2,0.5,0.5c0.2,0.2,0.3,0.5,0.4,0.7
		c0.1,0.3,0.2,0.5,0.2,0.7c0.1,0.3,0.1,0.5,0.1,0.6c0,0.1-0.3,0.2-0.7,0.3C55,18.3,54.1,18.5,53.2,18.7z"/>
</g>
<g class="st0">
	<path class="st1" d="M3.9,26.7c0.7-0.2,1.5-0.3,2.2-0.4c0.8-0.1,1.6-0.3,2.4-0.4c0.8-0.1,1.6-0.2,2.5-0.2c0.8,0,1.3,0.3,1.5,0.9
		c0.2,0.3,0.3,0.6,0.4,0.9s0.1,0.6,0.2,0.9c0.1,0.4,0,0.6-0.1,0.7c-0.1,0.1-0.4,0.2-0.8,0.3c-0.8,0.1-1.7,0.2-2.5,0.3
		c-0.9,0.1-1.8,0.2-2.8,0.3c-0.2,0.6-0.4,1.2-0.6,1.9C6.2,32.6,6,33.2,5.8,34c0.4-0.1,0.8-0.1,1.2-0.1c0.4,0,0.8,0,1.3-0.1
		c0.4,0,0.7,0,0.9,0.1s0.4,0.3,0.6,0.5c0.2,0.3,0.3,0.5,0.4,0.8c0.1,0.3,0.2,0.5,0.2,0.8c0.1,0.3,0.1,0.5,0,0.6
		c-0.1,0.1-0.3,0.2-0.7,0.3c-0.8,0.1-1.6,0.3-2.5,0.4c-0.8,0.1-1.7,0.3-2.5,0.4c-0.1,0.4-0.2,0.8-0.3,1.2c-0.1,0.4-0.2,0.8-0.3,1.2
		c0.6-0.1,1.2-0.2,1.8-0.3c0.6-0.1,1.2-0.1,1.9-0.2c0.4,0,0.7,0,0.9,0.1c0.2,0.1,0.4,0.2,0.5,0.5c0.2,0.3,0.3,0.5,0.4,0.8
		c0.1,0.2,0.2,0.5,0.3,0.7c0.1,0.3,0.1,0.5,0,0.6c-0.1,0.1-0.3,0.2-0.7,0.3c-0.9,0.2-1.8,0.3-2.6,0.5s-1.8,0.3-2.6,0.5
		c-0.5,0.1-1,0.2-1.2,0.1c-0.3-0.1-0.5-0.2-0.7-0.3c-0.2-0.1-0.5-0.3-0.7-0.5c-0.2-0.2-0.5-0.4-0.7-0.6c-0.2-0.2-0.4-0.4-0.5-0.7
		S0,41.1,0,40.8l1.9-13.5C2.5,27.1,3.2,26.9,3.9,26.7z"/>
	<path class="st1" d="M21.4,28.4c0.7-0.9,1.4-1.7,1.9-2.3c0.3-0.3,0.6-0.5,0.8-0.5c0.1,0,0.3,0,0.4,0.1c0.1,0.1,0.3,0.1,0.4,0.2
		c0.3,0.2,0.6,0.5,0.9,0.9s0.5,0.7,0.7,1c0.2,0.4,0.3,0.7,0.2,1s-0.2,0.6-0.5,0.9c-0.7,0.9-1.6,1.8-2.5,2.9C23,33.7,22,34.8,21,36
		c0.6,1.4,1.1,2.6,1.6,3.8c0.5,1.2,0.9,2.2,1.3,3.1c0.3,0.5,0.2,0.8-0.4,0.8c-0.7,0.1-1.4,0.1-2.1,0c-0.4,0-0.7-0.1-0.9-0.3
		s-0.4-0.4-0.7-0.7c-0.2-0.2-0.4-0.7-0.7-1.3c-0.3-0.6-0.7-1.4-1.1-2.3c-0.7,0.9-1.4,1.7-2,2.5c-0.6,0.8-1.1,1.5-1.6,2
		c-0.3,0.4-0.8,0.4-1.3,0.1c-0.2-0.1-0.4-0.2-0.6-0.4s-0.4-0.3-0.6-0.5c-0.2-0.2-0.4-0.4-0.5-0.5c-0.1-0.2-0.2-0.3-0.2-0.4
		c0-0.1,0-0.2,0.1-0.3c0-0.1,0.1-0.3,0.2-0.4c0.5-0.8,1.1-1.7,1.9-2.8c0.8-1.1,1.7-2.3,2.6-3.5c-0.3-0.7-0.7-1.4-1-2.1
		c-0.3-0.7-0.6-1.4-0.9-2c-0.3-0.7-0.6-1.3-0.8-1.8c-0.3-0.6-0.5-1.1-0.6-1.5c-0.2-0.4-0.2-0.7-0.1-0.9s0.3-0.3,0.7-0.3
		c0.1,0,0.2,0,0.3,0s0.2,0,0.3,0h0.6c0.2,0,0.4,0,0.6,0s0.4,0,0.7,0c0.5,0.1,0.8,0.2,1.1,0.5c0.3,0.2,0.5,0.6,0.7,0.9
		c0.2,0.6,0.5,1.2,0.7,1.8c0.3,0.6,0.5,1.3,0.8,2C19.9,30.3,20.6,29.3,21.4,28.4z"/>
	<path class="st1" d="M30.6,41.3c-0.1,0.7-0.3,1.4-0.4,2.1c-0.1,0.2-0.2,0.4-0.3,0.4c-0.1,0.1-0.4,0.1-0.7,0c-0.4-0.1-0.7-0.2-1-0.3
		c-0.3-0.1-0.6-0.2-0.9-0.3s-0.5-0.3-0.6-0.5c-0.1-0.2-0.2-0.5-0.1-0.9c0.1-0.3,0.2-0.9,0.3-1.7s0.2-1.7,0.3-2.6
		c0.1-1,0.2-2,0.2-3.1s0.2-2,0.2-2.9s0.2-1.6,0.3-2.3s0.2-0.9,0.4-1c0.5-0.3,1.1-0.6,1.7-0.8c0.6-0.3,1.3-0.6,1.9-0.8
		c0.7-0.2,1.3-0.4,2-0.6s1.3-0.2,1.9-0.3c0.6,0,1.2,0.1,1.7,0.2s1,0.4,1.4,0.8c0.5,0.5,0.9,1.1,1.3,1.7c0.4,0.6,0.7,1.3,0.9,2.2
		c0.1,0.4,0.1,0.8,0.1,1.2c0,0.4-0.1,0.7-0.3,1c-0.2,0.3-0.4,0.6-0.6,0.9c-0.2,0.3-0.5,0.6-0.8,0.9c-0.5,0.5-1,0.9-1.7,1.3
		s-1.3,0.8-2.1,1.2c-0.8,0.4-1.6,0.7-2.4,1c-0.8,0.3-1.7,0.6-2.5,0.8C30.9,39.9,30.7,40.6,30.6,41.3z M34.5,34.1
		c0.7-0.4,1.3-0.9,1.8-1.4s0.8-0.9,1-1.4c0.2-0.4,0.2-0.8,0.1-1.1c0-0.2-0.2-0.3-0.4-0.4c-0.3-0.1-0.6-0.1-1-0.1
		c-0.4,0-0.8,0.1-1.3,0.2c-0.5,0.1-1,0.3-1.5,0.5c-0.2,0.7-0.4,1.5-0.6,2.3c-0.2,0.8-0.4,1.6-0.6,2.5C32.9,35,33.7,34.6,34.5,34.1z"
		/>
	<path class="st1" d="M44.5,26.7c0.7-0.2,1.5-0.3,2.2-0.4c0.8-0.1,1.6-0.3,2.4-0.4c0.8-0.1,1.6-0.2,2.5-0.2c0.8,0,1.3,0.3,1.5,0.9
		c0.2,0.3,0.3,0.6,0.4,0.9c0.1,0.3,0.1,0.6,0.2,0.9c0.1,0.4,0,0.6-0.1,0.7c-0.1,0.1-0.4,0.2-0.8,0.3c-0.8,0.1-1.7,0.2-2.5,0.3
		c-0.9,0.1-1.8,0.2-2.8,0.3c-0.2,0.6-0.4,1.2-0.6,1.9c-0.2,0.7-0.4,1.3-0.6,2.1c0.4-0.1,0.8-0.1,1.2-0.1c0.4,0,0.8,0,1.3-0.1
		c0.4,0,0.7,0,0.9,0.1c0.2,0.1,0.4,0.3,0.5,0.5c0.2,0.3,0.3,0.5,0.4,0.8c0.1,0.3,0.2,0.5,0.2,0.8c0.1,0.3,0.1,0.5,0,0.6
		c-0.1,0.1-0.3,0.2-0.7,0.3c-0.8,0.1-1.6,0.3-2.5,0.4c-0.8,0.1-1.7,0.3-2.5,0.4c-0.1,0.4-0.2,0.8-0.3,1.2c-0.1,0.4-0.2,0.8-0.3,1.2
		c0.6-0.1,1.2-0.2,1.8-0.3c0.6-0.1,1.2-0.1,1.9-0.2c0.4,0,0.7,0,0.9,0.1c0.2,0.1,0.4,0.2,0.5,0.5c0.2,0.3,0.3,0.5,0.4,0.8
		c0.1,0.2,0.2,0.5,0.3,0.7c0.1,0.3,0.1,0.5,0,0.6c-0.1,0.1-0.3,0.2-0.7,0.3c-0.9,0.2-1.8,0.3-2.6,0.5s-1.8,0.3-2.6,0.5
		c-0.5,0.1-1,0.2-1.2,0.1c-0.3-0.1-0.5-0.2-0.7-0.3c-0.2-0.1-0.5-0.3-0.7-0.5c-0.2-0.2-0.5-0.4-0.7-0.6c-0.2-0.2-0.4-0.4-0.5-0.7
		s-0.2-0.6-0.2-0.9l1.9-13.5C43.1,27.1,43.8,26.9,44.5,26.7z"/>
	<path class="st1" d="M56.6,41.1c-0.2,0.8-0.3,1.5-0.5,2.2c-0.1,0.2-0.2,0.4-0.3,0.4s-0.3,0.1-0.6,0c-0.4-0.1-0.7-0.2-1-0.2
		c-0.3-0.1-0.6-0.1-0.8-0.3c-0.3-0.1-0.4-0.3-0.5-0.5c-0.1-0.2-0.1-0.5-0.1-0.8c0-0.3,0.1-0.7,0.1-1.2c0-0.5,0.1-1.2,0.2-1.8
		c0.1-0.7,0.1-1.4,0.2-2.2c0.1-0.8,0.2-1.6,0.3-2.4c0.1-0.8,0.2-1.6,0.3-2.3s0.3-1.4,0.4-2s0.3-1.1,0.4-1.5c0.2-0.4,0.3-0.6,0.5-0.7
		c0.8-0.4,1.7-0.8,2.6-1.1c0.9-0.4,1.8-0.6,2.7-0.8c0.9-0.2,1.7-0.2,2.5,0c0.8,0.1,1.5,0.5,2.1,1.1c0.5,0.5,0.9,1.1,1.3,1.7
		c0.4,0.6,0.7,1.3,0.9,2.2c0.2,0.9,0.1,1.7-0.2,2.2c-0.5,0.9-1.3,1.8-2.4,2.6c-1.1,0.8-2.4,1.5-3.9,2.2c0.3,0.4,0.7,0.7,1,1.1
		c0.4,0.4,0.8,0.8,1.2,1.2c0.4,0.4,0.8,0.8,1.2,1.1c0.4,0.4,0.8,0.7,1.1,1c0.3,0.2,0.4,0.4,0.4,0.5c0,0.1-0.1,0.3-0.3,0.4
		c-0.2,0.2-0.5,0.3-0.6,0.3c-0.2,0-0.4,0.1-0.6,0.1c-0.3,0.1-0.6,0.1-1,0.1c-0.4,0-0.8-0.2-1.3-0.5c-0.3-0.2-0.7-0.5-1.1-0.8
		c-0.4-0.3-0.8-0.7-1.3-1.1c-0.4-0.4-0.9-0.8-1.3-1.2c-0.4-0.4-0.8-0.9-1.2-1.3C57,39.5,56.8,40.3,56.6,41.1z M58.7,32.6
		c-0.2,0.8-0.4,1.6-0.7,2.5c0.9-0.3,1.8-0.7,2.5-1.2c0.7-0.5,1.3-0.9,1.8-1.4s0.8-0.9,1.1-1.3c0.2-0.4,0.3-0.7,0.2-1
		c-0.2-0.4-0.6-0.6-1.4-0.6c-0.4,0-0.8,0-1.3,0.1s-1,0.3-1.5,0.5C59.1,31.1,58.9,31.9,58.7,32.6z"/>
	<path class="st1" d="M79.6,29.3c-0.6,0.1-1.3,0.1-1.9,0.2c-0.3,1.1-0.6,2.3-0.9,3.5c-0.3,1.2-0.6,2.4-0.9,3.6s-0.6,2.4-0.8,3.5
		c-0.3,1.1-0.5,2.2-0.7,3.2c0,0.2-0.1,0.3-0.2,0.4c-0.1,0.1-0.2,0.1-0.4,0.1s-0.4,0-0.6-0.1c-0.2-0.1-0.5-0.1-0.8-0.2
		c-0.3-0.1-0.5-0.2-0.8-0.3c-0.2-0.1-0.4-0.2-0.6-0.3s-0.3-0.3-0.3-0.5c-0.1-0.2-0.1-0.4,0-0.7c0-0.7,0.1-1.5,0.2-2.4
		c0.1-1,0.3-2,0.4-3c0.2-1.1,0.4-2.1,0.6-3.2c0.2-1.1,0.4-2.1,0.6-3c-0.4,0.1-0.8,0.1-1.1,0.2c-0.4,0-0.7,0.1-0.9,0.2
		c-0.3,0.1-0.6,0.1-0.8,0c-0.2-0.1-0.5-0.2-0.7-0.5c-0.3-0.3-0.5-0.6-0.8-1.1c-0.2-0.4-0.4-0.8-0.6-1.1c-0.2-0.3-0.2-0.5-0.1-0.6
		c0.1-0.1,0.3-0.2,0.5-0.3c0.8-0.2,1.7-0.3,2.7-0.4c1-0.1,2-0.3,3.1-0.4s2.1-0.2,3.1-0.3c1-0.1,1.9-0.1,2.7-0.2c0.4,0,0.7,0,0.9,0.1
		c0.2,0.1,0.3,0.2,0.5,0.4c0.3,0.3,0.5,0.7,0.7,1c0.2,0.4,0.3,0.7,0.4,1.1c0.1,0.3,0.1,0.5,0,0.6c-0.1,0.1-0.3,0.2-0.7,0.2
		C80.8,29.2,80.3,29.3,79.6,29.3z"/>
</g>
</svg>
