<?xml version="1.0" encoding="utf-8"?>
<!-- Generator: Adobe Illustrator 22.0.1, SVG Export Plug-In . SVG Version: 6.00 Build 0)  -->
<svg version="1.1" id="Layer_1" xmlns="http://www.w3.org/2000/svg" xmlns:xlink="http://www.w3.org/1999/xlink" x="0px" y="0px"
	 viewBox="0 0 260.3 124.1" enable-background="new 0 0 260.3 124.1" xml:space="preserve">
<title>logo_big</title>
<g enable-background="new    ">
	<path fill="#DFFFFF" d="M51.5,47.1c-0.4,2.2-0.8,4.3-1.1,6.4c-0.2,0.7-0.5,1.1-0.8,1.3c-0.4,0.2-1.1,0.2-2.1,0
		c-1-0.3-2.1-0.6-3-0.8c-1-0.3-1.9-0.6-2.6-1c-0.8-0.4-1.3-1-1.7-1.6c-0.4-0.7-0.5-1.5-0.2-2.6c0.4-1,0.7-2.6,1-5
		c0.3-2.3,0.6-5,0.8-7.9c0.2-3,0.5-6,0.7-9.2s0.5-6.1,0.7-8.8s0.5-5,0.8-6.8s0.7-2.8,1.1-3c1.5-0.8,3.2-1.7,5-2.5
		c1.8-0.9,3.7-1.7,5.7-2.4s3.9-1.3,5.9-1.8s3.9-0.7,5.7-0.8c1.8,0,3.6,0.2,5.1,0.6c1.6,0.5,3,1.3,4.1,2.4c1.4,1.6,2.6,3.2,3.8,5
		c1.1,1.8,2,4,2.7,6.5c0.3,1.3,0.4,2.5,0.2,3.6c-0.1,1.1-0.4,2.1-0.9,3.1s-1,1.9-1.7,2.8s-1.5,1.8-2.3,2.6c-1.4,1.4-3,2.7-4.9,4
		s-4,2.5-6.2,3.7c-2.2,1.1-4.6,2.2-7.1,3.1s-4.9,1.7-7.3,2.4C52.3,42.6,51.9,44.9,51.5,47.1z M62.9,25.4c2.1-1.3,3.9-2.7,5.2-4.1
		c1.4-1.4,2.3-2.8,2.9-4.1s0.7-2.4,0.4-3.3c-0.1-0.5-0.6-0.9-1.3-1.1c-0.7-0.3-1.7-0.4-2.8-0.3c-1.1,0-2.4,0.2-3.8,0.6
		c-1.4,0.3-2.9,0.8-4.4,1.5c-0.6,2.2-1.3,4.5-1.8,6.9c-0.6,2.4-1.2,4.8-1.8,7.4C58.3,27.9,60.7,26.8,62.9,25.4z"/>
	<path fill="#DFFFFF" d="M104.8,6.8c0.2,0.6,0.2,1.4-0.1,2.5c-0.6,1.8-1.2,3.9-1.8,6.3c-0.7,2.4-1.3,4.9-2,7.5s-1.3,5.3-2,8.1
		c-0.6,2.8-1.3,5.5-1.9,8.1s-1.2,5.1-1.7,7.5s-0.9,4.4-1.3,6.3c-0.2,0.7-0.5,1.1-0.8,1.3s-1,0.2-2.1-0.1c-1-0.3-2-0.6-3-0.9
		c-0.9-0.3-1.8-0.7-2.7-1.1c-0.9-0.4-1.5-1-1.8-1.6s-0.4-1.4-0.3-2.5c0.1-1.4,0.3-3.3,0.5-5.5c0.3-2.3,0.6-4.8,1-7.5
		s0.8-5.5,1.3-8.5s1-5.9,1.5-8.8s1-5.6,1.5-8.1c0.5-2.6,1-4.8,1.4-6.7c0.4-1.2,0.9-1.9,1.5-2.2s1.6-0.2,2.8,0.2
		c1.2,0.3,2.6,0.8,4,1.5s2.7,1.3,3.8,2.1C103.9,5.6,104.6,6.3,104.8,6.8z"/>
	<path fill="#DFFFFF" d="M133.9,8.1c2.1-2.7,4-5.1,5.7-7c0.8-0.9,1.6-1.4,2.5-1.4c0.4,0,0.9,0.1,1.3,0.2c0.4,0.2,0.9,0.4,1.3,0.7
		c0.9,0.7,1.8,1.6,2.7,2.7c0.9,1,1.6,2,2.2,2.9c0.7,1.1,0.9,2.1,0.7,3.1c-0.2,0.9-0.7,1.8-1.4,2.7c-2.2,2.6-4.6,5.5-7.4,8.8
		s-5.7,6.7-8.7,10.3c1.7,4.1,3.3,7.9,4.7,11.4c1.5,3.5,2.8,6.7,3.9,9.4c0.9,1.4,0.5,2.3-1.3,2.5c-2,0.2-4.1,0.2-6.3,0
		c-1.1-0.1-1.9-0.4-2.5-0.8c-0.6-0.4-1.2-1.1-1.9-2.1c-0.5-0.7-1.2-2-2.1-3.9s-2.1-4.2-3.3-7c-2.2,2.7-4.1,5.2-5.9,7.5
		c-1.7,2.4-3.3,4.4-4.7,6.1c-1,1.2-2.2,1.3-3.8,0.3c-0.6-0.3-1.2-0.7-1.8-1.2c-0.6-0.5-1.3-1-1.8-1.6c-0.6-0.6-1.1-1.1-1.5-1.6
		s-0.6-1-0.7-1.3c0-0.3,0.1-0.6,0.2-1s0.3-0.8,0.6-1.3c1.4-2.3,3.3-5.1,5.6-8.4c2.3-3.3,4.9-6.8,7.8-10.5c-1-2.1-1.9-4.2-2.9-6.3
		s-1.9-4.1-2.7-6.1c-0.9-2-1.7-3.8-2.4-5.5c-0.7-1.7-1.4-3.2-1.9-4.5s-0.6-2.2-0.4-2.7s0.9-0.8,2.1-1c0.3,0,0.6-0.1,0.9-0.1
		s0.6,0,0.9,0h1.7c0.6,0,1.2,0,1.9,0c0.6,0,1.3,0.1,2,0.1c1.4,0.2,2.5,0.7,3.2,1.4c0.8,0.7,1.4,1.7,2,2.9c0.6,1.7,1.4,3.5,2.1,5.4
		c0.8,1.9,1.6,3.9,2.4,6C129.6,13.9,131.8,10.9,133.9,8.1z"/>
	<path fill="#DFFFFF" d="M162.6,3.1c2.1-0.5,4.3-0.9,6.6-1.3s4.7-0.8,7.1-1.1c2.4-0.3,4.8-0.5,7.2-0.6c2.3,0,3.7,0.9,4.4,2.7
		c0.5,1,0.9,1.9,1.1,2.7c0.2,0.8,0.4,1.7,0.6,2.6c0.2,1.1,0.1,1.8-0.2,2.1c-0.3,0.4-1.1,0.6-2.2,0.8c-2.4,0.3-4.9,0.6-7.5,0.9
		s-5.3,0.6-8.1,1c-0.6,1.8-1.2,3.8-1.7,5.7c-0.5,2-1.1,4.1-1.7,6.2c1.2-0.2,2.4-0.3,3.6-0.4c1.2-0.1,2.5-0.1,3.8-0.2
		c1.1,0,2,0.1,2.6,0.3c0.6,0.2,1.2,0.8,1.6,1.6c0.5,0.8,0.9,1.6,1.1,2.4s0.5,1.6,0.7,2.4c0.3,0.9,0.4,1.6,0.1,1.9
		c-0.3,0.3-1,0.6-2.1,0.9c-2.4,0.5-4.9,0.9-7.4,1.3c-2.5,0.4-4.9,0.9-7.2,1.3c-0.3,1.3-0.6,2.5-0.9,3.7c-0.3,1.2-0.6,2.3-0.9,3.5
		c1.9-0.3,3.7-0.6,5.4-0.8s3.6-0.4,5.6-0.5c1.1-0.1,2,0,2.6,0.2s1.2,0.7,1.6,1.5c0.5,0.8,0.9,1.6,1.1,2.3c0.3,0.7,0.6,1.4,0.9,2.2
		c0.2,0.8,0.2,1.4,0,1.7s-0.8,0.6-1.9,0.8c-2.6,0.5-5.2,1-7.8,1.5s-5.2,1-7.6,1.5c-1.6,0.4-2.8,0.5-3.6,0.3s-1.5-0.5-2.1-1
		c-0.7-0.4-1.3-0.9-2-1.4c-0.6-0.5-1.4-1.1-2.2-1.8c-0.7-0.6-1.2-1.2-1.6-2c-0.4-0.8-0.5-1.7-0.5-2.8l5.7-40.8
		C158.6,4.1,160.5,3.6,162.6,3.1z"/>
	<path fill="#DFFFFF" d="M207.3,52.5c-2.7,0.5-5.2,1-7.6,1.5c-0.9,0.2-1.6,0.4-2.2,0.4c-0.6,0-1.1,0-1.6-0.1
		c-0.4-0.1-0.8-0.2-1.1-0.4s-0.6-0.3-0.9-0.6c-0.7-0.4-1.3-0.9-1.9-1.4c-0.6-0.5-1.3-1.1-2.2-1.8c-0.7-0.6-1.2-1.2-1.6-1.9
		c-0.4-0.7-0.5-1.6-0.3-2.6c0.1-1.6,0.3-3.5,0.6-5.7s0.6-4.5,1-7.1c0.4-2.5,0.8-5.2,1.3-7.9s1-5.4,1.6-8.1s1.1-5.3,1.7-7.8
		c0.6-2.5,1.2-4.8,1.7-6.9c0.4-1.2,0.9-1.9,1.5-2.1s1.6-0.2,2.8,0.2c1.2,0.3,2.6,0.8,4,1.4s2.7,1.3,3.8,2c1,0.8,1.7,1.5,2,2
		c0.3,0.6,0.2,1.4-0.2,2.5c-0.8,2.5-1.6,5.2-2.4,8.1c-0.8,2.9-1.6,6-2.5,9.1c-0.8,3.1-1.6,6.2-2.3,9.3s-1.4,6-2.1,8.9
		c1.8-0.3,3.6-0.6,5.2-0.7c1.6-0.2,3.3-0.3,5.2-0.4c1.1-0.1,2,0,2.6,0.2s1.1,0.7,1.6,1.5c0.5,0.7,0.9,1.5,1.2,2.2
		c0.3,0.8,0.5,1.5,0.7,2.2c0.3,0.9,0.4,1.4,0.2,1.7c-0.1,0.3-0.8,0.6-2.1,0.8C212.5,51.5,209.9,52,207.3,52.5z"/>
</g>
<g enable-background="new    ">
	<path fill="#DFF8FF" d="M11.4,69.2c2.1-0.5,4.3-0.9,6.6-1.3s4.7-0.8,7.1-1.1c2.4-0.3,4.8-0.5,7.2-0.6c2.3,0,3.7,0.9,4.4,2.7
		c0.5,1,0.9,1.9,1.1,2.7c0.2,0.8,0.4,1.7,0.6,2.6c0.2,1.1,0.1,1.8-0.2,2.1c-0.3,0.4-1.1,0.6-2.2,0.8c-2.4,0.3-4.9,0.6-7.5,0.9
		s-5.3,0.6-8.1,1c-0.6,1.8-1.2,3.8-1.7,5.7c-0.5,2-1.1,4.1-1.7,6.2c1.2-0.2,2.4-0.3,3.6-0.4s2.5-0.1,3.8-0.2c1.1,0,2,0.1,2.6,0.3
		c0.6,0.2,1.2,0.8,1.6,1.6c0.5,0.8,0.9,1.6,1.1,2.4c0.3,0.8,0.5,1.6,0.7,2.4c0.3,0.9,0.4,1.6,0.1,1.9s-1,0.6-2.1,0.9
		c-2.4,0.5-4.9,0.9-7.4,1.3s-4.9,0.9-7.2,1.3c-0.3,1.3-0.6,2.5-0.9,3.7c-0.3,1.2-0.6,2.3-0.9,3.5c1.9-0.3,3.7-0.6,5.4-0.8
		c1.7-0.2,3.6-0.4,5.6-0.5c1.1-0.1,2,0,2.6,0.2s1.2,0.7,1.6,1.5c0.5,0.8,0.9,1.6,1.1,2.3c0.3,0.7,0.6,1.4,0.9,2.2
		c0.2,0.8,0.2,1.4,0,1.7c-0.2,0.3-0.8,0.6-1.9,0.8c-2.6,0.5-5.2,1-7.8,1.5s-5.2,1-7.6,1.5c-1.6,0.4-2.8,0.5-3.6,0.3s-1.5-0.5-2.1-1
		c-0.7-0.4-1.3-0.9-2-1.4c-0.6-0.5-1.4-1.1-2.2-1.8c-0.7-0.6-1.2-1.2-1.6-2s-0.5-1.7-0.5-2.8l5.7-40.8C7.4,70.2,9.3,69.7,11.4,69.2z
		"/>
	<path fill="#DFF8FF" d="M65.9,74.2c2.1-2.7,4-5.1,5.7-7c0.8-0.9,1.6-1.4,2.5-1.4c0.4,0,0.9,0.1,1.3,0.2c0.4,0.2,0.9,0.4,1.3,0.7
		c0.9,0.7,1.8,1.6,2.7,2.7c0.9,1,1.6,2,2.2,2.9c0.7,1.1,0.9,2.1,0.7,3.1c-0.2,0.9-0.7,1.8-1.4,2.7c-2.2,2.6-4.6,5.5-7.4,8.8
		s-5.7,6.7-8.7,10.3c1.7,4.1,3.3,7.9,4.7,11.4c1.5,3.5,2.8,6.7,3.9,9.4c0.9,1.4,0.5,2.3-1.3,2.5c-2,0.2-4.1,0.2-6.3,0
		c-1.1-0.1-1.9-0.4-2.5-0.8s-1.2-1.1-1.9-2.1c-0.5-0.7-1.2-2-2.1-3.9c-0.9-1.9-2.1-4.2-3.3-7c-2.2,2.7-4.1,5.2-5.9,7.5
		c-1.7,2.4-3.3,4.4-4.7,6.1c-1,1.2-2.2,1.3-3.8,0.3c-0.6-0.3-1.2-0.7-1.8-1.2s-1.3-1-1.8-1.6c-0.6-0.6-1.1-1.1-1.5-1.6
		s-0.6-1-0.7-1.3c0-0.3,0.1-0.6,0.2-1c0.1-0.4,0.3-0.8,0.6-1.3c1.4-2.3,3.3-5.1,5.6-8.4s4.9-6.8,7.8-10.5c-1-2.1-1.9-4.2-2.9-6.3
		c-1-2.1-1.9-4.1-2.7-6.1c-0.9-2-1.7-3.8-2.4-5.5s-1.4-3.2-1.9-4.5s-0.6-2.2-0.4-2.7c0.2-0.5,0.9-0.8,2.1-1c0.3,0,0.6-0.1,0.9-0.1
		c0.3,0,0.6,0,0.9,0h1.7c0.6,0,1.2,0,1.9,0c0.6,0,1.3,0.1,2,0.1c1.4,0.2,2.5,0.7,3.2,1.4c0.8,0.7,1.4,1.7,2,2.9
		c0.6,1.7,1.4,3.5,2.1,5.4s1.6,3.9,2.4,6C61.5,79.9,63.8,76.9,65.9,74.2z"/>
	<path fill="#DFF8FF" d="M96.1,113.1c-0.4,2.2-0.8,4.3-1.1,6.4c-0.2,0.7-0.5,1.1-0.8,1.3c-0.4,0.2-1.1,0.2-2.1,0
		c-1-0.3-2.1-0.6-3-0.8c-1-0.3-1.9-0.6-2.6-1c-0.8-0.4-1.3-1-1.7-1.6c-0.4-0.7-0.5-1.5-0.2-2.6c0.4-1,0.7-2.6,1-5
		c0.3-2.3,0.6-5,0.8-7.9c0.2-3,0.5-6,0.7-9.2s0.5-6.1,0.7-8.8c0.2-2.7,0.5-5,0.8-6.8s0.7-2.8,1.1-3c1.5-0.8,3.2-1.7,5-2.5
		c1.8-0.9,3.7-1.7,5.7-2.4c2-0.7,3.9-1.3,5.9-1.8s3.9-0.7,5.7-0.8c1.8,0,3.6,0.2,5.1,0.6c1.6,0.5,3,1.3,4.1,2.4
		c1.4,1.6,2.6,3.2,3.8,5c1.1,1.8,2,4,2.7,6.5c0.3,1.3,0.4,2.5,0.2,3.6c-0.1,1.1-0.4,2.1-0.9,3.1s-1,1.9-1.7,2.8s-1.5,1.8-2.3,2.6
		c-1.4,1.4-3,2.7-4.9,4s-4,2.5-6.2,3.7c-2.2,1.1-4.6,2.2-7.1,3.1s-4.9,1.7-7.3,2.4C97,108.7,96.5,110.9,96.1,113.1z M107.5,91.5
		c2.1-1.3,3.9-2.7,5.2-4.1c1.4-1.4,2.3-2.8,2.9-4.1c0.6-1.3,0.7-2.4,0.4-3.3c-0.1-0.5-0.6-0.9-1.3-1.1c-0.7-0.3-1.7-0.4-2.8-0.3
		c-1.1,0-2.4,0.2-3.8,0.6c-1.4,0.3-2.9,0.8-4.4,1.5c-0.6,2.2-1.3,4.5-1.8,6.9c-0.6,2.4-1.2,4.8-1.8,7.4
		C102.9,93.9,105.4,92.8,107.5,91.5z"/>
	<path fill="#DFF8FF" d="M140,69.2c2.1-0.5,4.3-0.9,6.6-1.3s4.7-0.8,7.1-1.1s4.8-0.5,7.2-0.6c2.3,0,3.7,0.9,4.4,2.7
		c0.5,1,0.9,1.9,1.1,2.7c0.2,0.8,0.4,1.7,0.6,2.6c0.2,1.1,0.1,1.8-0.2,2.1c-0.3,0.4-1.1,0.6-2.2,0.8c-2.4,0.3-4.9,0.6-7.5,0.9
		s-5.3,0.6-8.1,1c-0.6,1.8-1.2,3.8-1.7,5.7c-0.5,2-1.1,4.1-1.7,6.2c1.2-0.2,2.4-0.3,3.6-0.4c1.2-0.1,2.5-0.1,3.8-0.2
		c1.1,0,2,0.1,2.6,0.3c0.6,0.2,1.2,0.8,1.6,1.6c0.5,0.8,0.9,1.6,1.1,2.4c0.3,0.8,0.5,1.6,0.7,2.4c0.3,0.9,0.4,1.6,0.1,1.9
		c-0.3,0.3-1,0.6-2.1,0.9c-2.4,0.5-4.9,0.9-7.4,1.3s-4.9,0.9-7.2,1.3c-0.3,1.3-0.6,2.5-0.9,3.7c-0.3,1.2-0.6,2.3-0.9,3.5
		c1.9-0.3,3.7-0.6,5.4-0.8c1.7-0.2,3.6-0.4,5.6-0.5c1.1-0.1,2,0,2.6,0.2s1.2,0.7,1.6,1.5c0.5,0.8,0.9,1.6,1.1,2.3
		c0.3,0.7,0.6,1.4,0.9,2.2c0.2,0.8,0.2,1.4,0,1.7c-0.2,0.3-0.8,0.6-1.9,0.8c-2.6,0.5-5.2,1-7.8,1.5s-5.2,1-7.6,1.5
		c-1.6,0.4-2.8,0.5-3.6,0.3s-1.5-0.5-2.1-1c-0.7-0.4-1.3-0.9-2-1.4c-0.6-0.5-1.4-1.1-2.2-1.8c-0.7-0.6-1.2-1.2-1.6-2
		c-0.4-0.8-0.5-1.7-0.5-2.8l5.7-40.8C136,70.2,137.9,69.7,140,69.2z"/>
	<path fill="#DFF8FF" d="M178.8,112.4c-0.5,2.3-0.9,4.5-1.4,6.7c-0.2,0.7-0.5,1.1-0.8,1.3c-0.3,0.2-1,0.2-1.9,0
		c-1.1-0.3-2-0.5-2.9-0.7s-1.6-0.4-2.4-0.9c-0.8-0.4-1.3-1-1.6-1.6s-0.4-1.5-0.3-2.5c0.1-0.9,0.2-2.1,0.3-3.7s0.3-3.5,0.5-5.6
		s0.4-4.3,0.7-6.7c0.3-2.4,0.5-4.7,0.8-7.1s0.6-4.7,1-6.9c0.4-2.2,0.7-4.2,1.1-6c0.4-1.8,0.8-3.2,1.3-4.4c0.5-1.2,1-1.9,1.5-2.2
		c2.5-1.1,5.1-2.3,7.8-3.4s5.4-1.9,8-2.4s5.1-0.5,7.5-0.1c2.3,0.4,4.4,1.5,6.2,3.2c1.4,1.6,2.7,3.2,3.8,5s2,4,2.7,6.5
		c0.5,2.7,0.3,5-0.6,6.7c-1.4,2.8-3.7,5.4-6.9,7.8s-7.1,4.6-11.6,6.6c0.9,1.1,1.9,2.2,3,3.4c1.1,1.2,2.2,2.4,3.4,3.6
		s2.3,2.3,3.5,3.4c1.1,1.1,2.2,2.1,3.2,2.9c0.8,0.7,1.2,1.2,1.1,1.7c-0.1,0.4-0.4,0.8-1,1.3c-0.7,0.6-1.3,0.9-1.8,1
		s-1.1,0.2-1.8,0.3c-0.9,0.2-1.9,0.3-2.9,0.2c-1.1-0.1-2.3-0.6-3.7-1.4c-0.9-0.7-2-1.5-3.2-2.5s-2.4-2.1-3.7-3.2
		c-1.3-1.2-2.6-2.4-3.8-3.7c-1.3-1.3-2.4-2.6-3.5-3.9C179.8,107.7,179.3,110.1,178.8,112.4z M184.9,87c-0.6,2.4-1.3,4.9-2,7.6
		c2.8-0.9,5.2-2.1,7.4-3.5c2.1-1.4,3.9-2.8,5.4-4.2c1.4-1.4,2.5-2.8,3.1-4c0.6-1.3,0.8-2.2,0.6-2.9c-0.5-1.1-1.9-1.7-4.3-1.7
		c-1.2,0-2.4,0.1-3.8,0.4c-1.4,0.3-2.9,0.8-4.4,1.6C186.1,82.4,185.5,84.6,184.9,87z"/>
	<path fill="#DFF8FF" d="M249.6,77c-1.8,0.2-3.7,0.4-5.7,0.6c-0.8,3.4-1.7,7-2.6,10.7s-1.8,7.3-2.6,10.9s-1.6,7.1-2.4,10.6
		c-0.7,3.4-1.4,6.6-2,9.6c-0.1,0.6-0.3,1-0.6,1.1c-0.3,0.2-0.7,0.3-1.2,0.2c-0.5,0-1.1-0.1-1.8-0.3c-0.7-0.2-1.4-0.4-2.3-0.7
		c-0.8-0.2-1.6-0.5-2.3-0.8s-1.3-0.6-1.7-1c-0.5-0.4-0.8-0.9-1-1.4c-0.2-0.6-0.2-1.2-0.1-2c0.1-2,0.4-4.4,0.7-7.2s0.8-5.9,1.3-9.1
		s1.1-6.4,1.7-9.7c0.6-3.3,1.2-6.3,1.8-9c-1.2,0.2-2.3,0.4-3.4,0.5c-1.1,0.1-2,0.3-2.7,0.5c-1,0.2-1.8,0.3-2.5,0.1s-1.4-0.7-2.2-1.6
		s-1.6-1.9-2.3-3.3c-0.7-1.3-1.3-2.4-1.7-3.3c-0.5-0.9-0.6-1.6-0.4-1.9c0.2-0.3,0.7-0.6,1.5-0.8c2.4-0.5,5-0.9,8-1.3s6-0.8,9.1-1.1
		c3.1-0.3,6.2-0.6,9.1-0.8c3-0.2,5.7-0.4,8-0.5c1.2,0,2.1,0.1,2.7,0.3c0.5,0.2,1,0.6,1.4,1.1c0.8,0.9,1.5,2,2,3.1s0.9,2.2,1.2,3.2
		c0.2,0.9,0.2,1.6,0,1.9s-1,0.6-2.2,0.6C253.1,76.7,251.4,76.8,249.6,77z"/>
</g>
<g enable-background="new    ">
	<path fill="#DF4D4E" d="M54.5,50.4c-0.4,2.2-0.8,4.3-1.1,6.4c-0.2,0.7-0.5,1.1-0.8,1.3c-0.4,0.2-1.1,0.2-2.1,0
		c-1-0.3-2.1-0.6-3-0.8c-1-0.3-1.9-0.6-2.6-1c-0.8-0.4-1.3-1-1.7-1.6c-0.4-0.7-0.5-1.5-0.2-2.6c0.4-1,0.7-2.6,1-5
		c0.3-2.3,0.6-5,0.8-7.9c0.2-3,0.5-6,0.7-9.2s0.5-6.1,0.7-8.8s0.5-5,0.8-6.8s0.7-2.8,1.1-3c1.5-0.8,3.2-1.7,5-2.5
		c1.8-0.9,3.7-1.7,5.7-2.4s3.9-1.3,5.9-1.8s3.9-0.7,5.7-0.8c1.8,0,3.6,0.2,5.1,0.6c1.6,0.5,3,1.3,4.1,2.4c1.4,1.6,2.6,3.2,3.8,5
		c1.1,1.8,2,4,2.7,6.5c0.3,1.3,0.4,2.5,0.2,3.6c-0.1,1.1-0.4,2.1-0.9,3.1s-1,1.9-1.7,2.8s-1.5,1.8-2.3,2.6c-1.4,1.4-3,2.7-4.9,4
		s-4,2.5-6.2,3.7c-2.2,1.1-4.6,2.2-7.1,3.1c-2.5,0.9-4.9,1.7-7.3,2.4C55.3,45.9,54.9,48.2,54.5,50.4z M65.9,28.7
		c2.1-1.3,3.9-2.7,5.2-4.1c1.4-1.4,2.3-2.8,2.9-4.1c0.6-1.3,0.7-2.4,0.4-3.3c-0.1-0.5-0.6-0.9-1.3-1.1c-0.7-0.3-1.7-0.4-2.8-0.3
		c-1.1,0-2.4,0.2-3.8,0.6c-1.4,0.3-2.9,0.8-4.4,1.5c-0.6,2.2-1.3,4.5-1.8,6.9c-0.6,2.4-1.2,4.8-1.8,7.4
		C61.3,31.2,63.7,30.1,65.9,28.7z"/>
	<path fill="#DF4D4E" d="M107.8,10.1c0.2,0.6,0.2,1.4-0.1,2.5c-0.6,1.8-1.2,3.9-1.8,6.3c-0.7,2.4-1.3,4.9-2,7.5s-1.3,5.3-2,8.1
		c-0.6,2.8-1.3,5.5-1.9,8.1s-1.2,5.1-1.7,7.5s-0.9,4.4-1.3,6.3c-0.2,0.7-0.5,1.1-0.8,1.3s-1,0.2-2.1-0.1c-1-0.3-2-0.6-3-0.9
		c-0.9-0.3-1.8-0.7-2.7-1.1c-0.9-0.4-1.5-1-1.8-1.6s-0.4-1.4-0.3-2.5c0.1-1.4,0.3-3.3,0.5-5.5c0.3-2.3,0.6-4.8,1-7.5
		s0.8-5.5,1.3-8.5s1-5.9,1.5-8.8s1-5.6,1.5-8.1c0.5-2.6,1-4.8,1.4-6.7c0.4-1.2,0.9-1.9,1.5-2.2s1.6-0.2,2.8,0.2
		c1.2,0.3,2.6,0.8,4,1.5s2.7,1.3,3.8,2.1C106.9,8.9,107.6,9.6,107.8,10.1z"/>
	<path fill="#DF4D4E" d="M136.9,11.4c2.1-2.7,4-5.1,5.7-7c0.8-0.9,1.6-1.4,2.5-1.4c0.4,0,0.9,0.1,1.3,0.2c0.4,0.2,0.9,0.4,1.3,0.7
		c0.9,0.7,1.8,1.6,2.7,2.7c0.9,1,1.6,2,2.2,2.9c0.7,1.1,0.9,2.1,0.7,3.1c-0.2,0.9-0.7,1.8-1.4,2.7c-2.2,2.6-4.6,5.5-7.4,8.8
		s-5.7,6.7-8.7,10.3c1.7,4.1,3.3,7.9,4.7,11.4c1.5,3.5,2.8,6.7,3.9,9.4c0.9,1.4,0.5,2.3-1.3,2.5c-2,0.2-4.1,0.2-6.3,0
		c-1.1-0.1-1.9-0.4-2.5-0.8c-0.6-0.4-1.2-1.1-1.9-2.1c-0.5-0.7-1.2-2-2.1-3.9c-0.9-1.9-2.1-4.2-3.3-7c-2.2,2.7-4.1,5.2-5.9,7.5
		c-1.7,2.4-3.3,4.4-4.7,6.1c-1,1.2-2.2,1.3-3.8,0.3c-0.6-0.3-1.2-0.7-1.8-1.2c-0.6-0.5-1.3-1-1.8-1.6c-0.6-0.6-1.1-1.1-1.5-1.6
		s-0.6-1-0.7-1.3c0-0.3,0.1-0.6,0.2-1s0.3-0.8,0.6-1.3c1.4-2.3,3.3-5.1,5.6-8.4c2.3-3.3,4.9-6.8,7.8-10.5c-1-2.1-1.9-4.2-2.9-6.3
		s-1.9-4.1-2.7-6.1c-0.9-2-1.7-3.8-2.4-5.5c-0.7-1.7-1.4-3.2-1.9-4.5s-0.6-2.2-0.4-2.7s0.9-0.8,2.1-1c0.3,0,0.6-0.1,0.9-0.1
		s0.6,0,0.9,0h1.7c0.6,0,1.2,0,1.9,0c0.6,0,1.3,0.1,2,0.1c1.4,0.2,2.5,0.7,3.2,1.4c0.8,0.7,1.4,1.7,2,2.9c0.6,1.7,1.4,3.5,2.1,5.4
		c0.8,1.9,1.6,3.9,2.4,6C132.6,17.2,134.8,14.2,136.9,11.4z"/>
	<path fill="#DF4D4E" d="M165.6,6.4c2.1-0.5,4.3-0.9,6.6-1.3s4.7-0.8,7.1-1.1c2.4-0.3,4.8-0.5,7.2-0.6c2.3,0,3.7,0.9,4.4,2.7
		c0.5,1,0.9,1.9,1.1,2.7c0.2,0.8,0.4,1.7,0.6,2.6c0.2,1.1,0.1,1.8-0.2,2.1c-0.3,0.4-1.1,0.6-2.2,0.8c-2.4,0.3-4.9,0.6-7.5,0.9
		s-5.3,0.6-8.1,1c-0.6,1.8-1.2,3.8-1.7,5.7c-0.5,2-1.1,4.1-1.7,6.2c1.2-0.2,2.4-0.3,3.6-0.4c1.2-0.1,2.5-0.1,3.8-0.2
		c1.1,0,2,0.1,2.6,0.3c0.6,0.2,1.2,0.8,1.6,1.6c0.5,0.8,0.9,1.6,1.1,2.4c0.2,0.8,0.5,1.6,0.7,2.4c0.3,0.9,0.4,1.6,0.1,1.9
		c-0.3,0.3-1,0.6-2.1,0.9c-2.4,0.5-4.9,0.9-7.4,1.3c-2.5,0.4-4.9,0.9-7.2,1.3c-0.3,1.3-0.6,2.5-0.9,3.7c-0.3,1.2-0.6,2.3-0.9,3.5
		c1.9-0.3,3.7-0.6,5.4-0.8s3.6-0.4,5.6-0.5c1.1-0.1,2,0,2.6,0.2s1.2,0.7,1.6,1.5c0.5,0.8,0.9,1.6,1.1,2.3c0.3,0.7,0.6,1.4,0.9,2.2
		c0.2,0.8,0.2,1.4,0,1.7s-0.8,0.6-1.9,0.8c-2.6,0.5-5.2,1-7.8,1.5s-5.2,1-7.6,1.5c-1.6,0.4-2.8,0.5-3.6,0.3s-1.5-0.5-2.1-1
		c-0.7-0.4-1.3-0.9-2-1.4c-0.6-0.5-1.4-1.1-2.2-1.8c-0.7-0.6-1.2-1.2-1.6-2c-0.4-0.8-0.5-1.7-0.5-2.8l5.7-40.8
		C161.6,7.4,163.5,6.9,165.6,6.4z"/>
	<path fill="#DF4D4E" d="M210.3,55.8c-2.7,0.5-5.2,1-7.6,1.5c-0.9,0.2-1.6,0.4-2.2,0.4c-0.6,0-1.1,0-1.6-0.1
		c-0.4-0.1-0.8-0.2-1.1-0.4s-0.6-0.3-0.9-0.6c-0.7-0.4-1.3-0.9-1.9-1.4c-0.6-0.5-1.3-1.1-2.2-1.8c-0.7-0.6-1.2-1.2-1.6-1.9
		c-0.4-0.7-0.5-1.6-0.3-2.6c0.1-1.6,0.3-3.5,0.6-5.7s0.6-4.5,1-7.1c0.4-2.5,0.8-5.2,1.3-7.9s1-5.4,1.6-8.1s1.1-5.3,1.7-7.8
		c0.6-2.5,1.2-4.8,1.7-6.9c0.4-1.2,0.9-1.9,1.5-2.1s1.6-0.2,2.8,0.2c1.2,0.3,2.6,0.8,4,1.4s2.7,1.3,3.8,2c1,0.8,1.7,1.5,2,2
		c0.3,0.6,0.2,1.4-0.2,2.5c-0.8,2.5-1.6,5.2-2.4,8.1c-0.8,2.9-1.6,6-2.5,9.1c-0.8,3.1-1.6,6.2-2.3,9.3s-1.4,6-2.1,8.9
		c1.8-0.3,3.6-0.6,5.2-0.7c1.6-0.2,3.3-0.3,5.2-0.4c1.1-0.1,2,0,2.6,0.2s1.1,0.7,1.6,1.5c0.5,0.7,0.9,1.5,1.2,2.2
		c0.3,0.8,0.5,1.5,0.7,2.2c0.3,0.9,0.4,1.4,0.2,1.7c-0.1,0.3-0.8,0.6-2.1,0.8C215.5,54.8,212.9,55.3,210.3,55.8z"/>
</g>
<g enable-background="new    ">
	<path fill="#DF4D4E" d="M14.6,71.9c2.1-0.5,4.3-0.9,6.6-1.3s4.7-0.8,7.1-1.1c2.4-0.3,4.8-0.5,7.2-0.6c2.3,0,3.7,0.9,4.4,2.7
		c0.5,1,0.9,1.9,1.1,2.7c0.2,0.8,0.4,1.7,0.6,2.6c0.2,1.1,0.1,1.8-0.2,2.1c-0.3,0.4-1.1,0.6-2.2,0.8c-2.4,0.3-4.9,0.6-7.5,0.9
		s-5.3,0.6-8.1,1c-0.6,1.8-1.2,3.8-1.7,5.7c-0.5,2-1.1,4.1-1.7,6.2c1.2-0.2,2.4-0.3,3.6-0.4s2.5-0.1,3.8-0.2c1.1,0,2,0.1,2.6,0.3
		c0.6,0.2,1.2,0.8,1.6,1.6c0.5,0.8,0.9,1.6,1.1,2.4c0.3,0.8,0.5,1.6,0.7,2.4c0.3,0.9,0.4,1.6,0.1,1.9s-1,0.6-2.1,0.9
		c-2.4,0.5-4.9,0.9-7.4,1.3s-4.9,0.9-7.2,1.3c-0.3,1.3-0.6,2.5-0.9,3.7c-0.3,1.2-0.6,2.3-0.9,3.5c1.9-0.3,3.7-0.6,5.4-0.8
		c1.7-0.2,3.6-0.4,5.6-0.5c1.1-0.1,2,0,2.6,0.2s1.2,0.7,1.6,1.5c0.5,0.8,0.9,1.6,1.1,2.3c0.3,0.7,0.6,1.4,0.9,2.2
		c0.2,0.8,0.2,1.4,0,1.7c-0.2,0.3-0.8,0.6-1.9,0.8c-2.6,0.5-5.2,1-7.8,1.5s-5.2,1-7.6,1.5c-1.6,0.4-2.8,0.5-3.6,0.3s-1.5-0.5-2.1-1
		c-0.7-0.4-1.3-0.9-2-1.4c-0.6-0.5-1.4-1.1-2.2-1.8c-0.7-0.6-1.2-1.2-1.6-2s-0.5-1.7-0.5-2.8l5.7-40.8
		C10.6,72.9,12.5,72.4,14.6,71.9z"/>
	<path fill="#DF4D4E" d="M69.1,76.9c2.1-2.7,4-5.1,5.7-7c0.8-0.9,1.6-1.4,2.5-1.4c0.4,0,0.9,0.1,1.3,0.2c0.4,0.2,0.9,0.4,1.3,0.7
		c0.9,0.7,1.8,1.6,2.7,2.7c0.9,1,1.6,2,2.2,2.9c0.7,1.1,0.9,2.1,0.7,3.1c-0.2,0.9-0.7,1.8-1.4,2.7c-2.2,2.6-4.6,5.5-7.4,8.8
		S71,96.3,68,99.9c1.7,4.1,3.3,7.9,4.7,11.4c1.5,3.5,2.8,6.7,3.9,9.4c0.9,1.4,0.5,2.3-1.3,2.5c-2,0.2-4.1,0.2-6.3,0
		c-1.1-0.1-1.9-0.4-2.5-0.8s-1.2-1.1-1.9-2.1c-0.5-0.7-1.2-2-2.1-3.9c-0.9-1.9-2.1-4.2-3.3-7c-2.2,2.7-4.1,5.2-5.9,7.5
		c-1.7,2.4-3.3,4.4-4.7,6.1c-1,1.2-2.2,1.3-3.8,0.3c-0.6-0.3-1.2-0.7-1.8-1.2s-1.3-1-1.8-1.6c-0.6-0.6-1.1-1.1-1.5-1.6
		s-0.6-1-0.7-1.3c0-0.3,0.1-0.6,0.2-1c0.1-0.4,0.3-0.8,0.6-1.3c1.4-2.3,3.3-5.1,5.6-8.4s4.9-6.8,7.8-10.5c-1-2.1-1.9-4.2-2.9-6.3
		c-1-2.1-1.9-4.1-2.7-6.1c-0.9-2-1.7-3.8-2.4-5.5s-1.4-3.2-1.9-4.5s-0.6-2.2-0.4-2.7c0.2-0.5,0.9-0.8,2.1-1c0.3,0,0.6-0.1,0.9-0.1
		c0.3,0,0.6,0,0.9,0h1.7c0.6,0,1.2,0,1.9,0c0.6,0,1.3,0.1,2,0.1c1.4,0.2,2.5,0.7,3.2,1.4c0.8,0.7,1.4,1.7,2,2.9
		c0.6,1.7,1.4,3.5,2.1,5.4s1.6,3.9,2.4,6C64.7,82.6,67,79.6,69.1,76.9z"/>
	<path fill="#DF4D4E" d="M99.3,115.8c-0.4,2.2-0.8,4.3-1.1,6.4c-0.2,0.7-0.5,1.1-0.8,1.3c-0.4,0.2-1.1,0.2-2.1,0
		c-1-0.3-2.1-0.6-3-0.8c-1-0.3-1.9-0.6-2.6-1c-0.8-0.4-1.3-1-1.7-1.6c-0.4-0.7-0.5-1.5-0.2-2.6c0.4-1,0.7-2.6,1-5
		c0.3-2.3,0.6-5,0.8-7.9c0.2-3,0.5-6,0.7-9.2s0.5-6.1,0.7-8.8c0.2-2.7,0.5-5,0.8-6.8s0.7-2.8,1.1-3c1.5-0.8,3.2-1.7,5-2.5
		c1.8-0.9,3.7-1.7,5.7-2.4c2-0.7,3.9-1.3,5.9-1.8s3.9-0.7,5.7-0.8c1.8,0,3.6,0.2,5.1,0.6c1.6,0.5,3,1.3,4.1,2.4
		c1.4,1.6,2.6,3.2,3.8,5c1.1,1.8,2,4,2.7,6.5c0.3,1.3,0.4,2.5,0.2,3.6c-0.1,1.1-0.4,2.1-0.9,3.1s-1,1.9-1.7,2.8s-1.5,1.8-2.3,2.6
		c-1.4,1.4-3,2.7-4.9,4s-4,2.5-6.2,3.7c-2.2,1.1-4.6,2.2-7.1,3.1s-4.9,1.7-7.3,2.4C100.2,111.4,99.7,113.6,99.3,115.8z M110.7,94.2
		c2.1-1.3,3.9-2.7,5.2-4.1c1.4-1.4,2.3-2.8,2.9-4.1c0.6-1.3,0.7-2.4,0.4-3.3c-0.1-0.5-0.6-0.9-1.3-1.1c-0.7-0.3-1.7-0.4-2.8-0.3
		c-1.1,0-2.4,0.2-3.8,0.6c-1.4,0.3-2.9,0.8-4.4,1.5c-0.6,2.2-1.3,4.5-1.8,6.9c-0.6,2.4-1.2,4.8-1.8,7.4
		C106.1,96.6,108.6,95.5,110.7,94.2z"/>
	<path fill="#DF4D4E" d="M143.2,71.9c2.1-0.5,4.3-0.9,6.6-1.3s4.7-0.8,7.1-1.1s4.8-0.5,7.2-0.6c2.3,0,3.7,0.9,4.4,2.7
		c0.5,1,0.9,1.9,1.1,2.7c0.2,0.8,0.4,1.7,0.6,2.6c0.2,1.1,0.1,1.8-0.2,2.1c-0.3,0.4-1.1,0.6-2.2,0.8c-2.4,0.3-4.9,0.6-7.5,0.9
		s-5.3,0.6-8.1,1c-0.6,1.8-1.2,3.8-1.7,5.7c-0.5,2-1.1,4.1-1.7,6.2c1.2-0.2,2.4-0.3,3.6-0.4c1.2-0.1,2.5-0.1,3.8-0.2
		c1.1,0,2,0.1,2.6,0.3c0.6,0.2,1.2,0.8,1.6,1.6c0.5,0.8,0.9,1.6,1.1,2.4c0.3,0.8,0.5,1.6,0.7,2.4c0.3,0.9,0.4,1.6,0.1,1.9
		c-0.3,0.3-1,0.6-2.1,0.9c-2.4,0.5-4.9,0.9-7.4,1.3s-4.9,0.9-7.2,1.3c-0.3,1.3-0.6,2.5-0.9,3.7c-0.3,1.2-0.6,2.3-0.9,3.5
		c1.9-0.3,3.7-0.6,5.4-0.8c1.7-0.2,3.6-0.4,5.6-0.5c1.1-0.1,2,0,2.6,0.2s1.2,0.7,1.6,1.5c0.5,0.8,0.9,1.6,1.1,2.3
		c0.3,0.7,0.6,1.4,0.9,2.2c0.2,0.8,0.2,1.4,0,1.7c-0.2,0.3-0.8,0.6-1.9,0.8c-2.6,0.5-5.2,1-7.8,1.5s-5.2,1-7.6,1.5
		c-1.6,0.4-2.8,0.5-3.6,0.3s-1.5-0.5-2.1-1c-0.7-0.4-1.3-0.9-2-1.4c-0.6-0.5-1.4-1.1-2.2-1.8c-0.7-0.6-1.2-1.2-1.6-2
		c-0.4-0.8-0.5-1.7-0.5-2.8l5.7-40.8C139.2,72.9,141.1,72.4,143.2,71.9z"/>
	<path fill="#DF4D4E" d="M182,115.1c-0.5,2.3-0.9,4.5-1.4,6.7c-0.2,0.7-0.5,1.1-0.8,1.3c-0.3,0.2-1,0.2-1.9,0
		c-1.1-0.3-2-0.5-2.9-0.7s-1.6-0.4-2.4-0.9c-0.8-0.4-1.3-1-1.6-1.6s-0.4-1.5-0.3-2.5c0.1-0.9,0.2-2.1,0.3-3.7s0.3-3.5,0.5-5.6
		s0.4-4.3,0.7-6.7c0.3-2.4,0.5-4.7,0.8-7.1s0.6-4.7,1-6.9c0.4-2.2,0.7-4.2,1.1-6c0.4-1.8,0.8-3.2,1.3-4.4c0.5-1.2,1-1.9,1.5-2.2
		c2.5-1.1,5.1-2.3,7.8-3.4s5.4-1.9,8-2.4s5.1-0.5,7.5-0.1c2.3,0.4,4.4,1.5,6.2,3.2c1.4,1.6,2.7,3.2,3.8,5s2,4,2.7,6.5
		c0.5,2.7,0.3,5-0.6,6.7c-1.4,2.8-3.7,5.4-6.9,7.8s-7.1,4.6-11.6,6.6c0.9,1.1,1.9,2.2,3,3.4c1.1,1.2,2.2,2.4,3.4,3.6
		s2.3,2.3,3.5,3.4c1.1,1.1,2.2,2.1,3.2,2.9c0.8,0.7,1.2,1.2,1.1,1.7c-0.1,0.4-0.4,0.8-1,1.3c-0.7,0.6-1.3,0.9-1.8,1
		s-1.1,0.2-1.8,0.3c-0.9,0.2-1.9,0.3-2.9,0.2c-1.1-0.1-2.3-0.6-3.7-1.4c-0.9-0.7-2-1.5-3.2-2.5s-2.4-2.1-3.7-3.2
		c-1.3-1.2-2.6-2.4-3.8-3.7c-1.3-1.3-2.4-2.6-3.5-3.9C183,110.4,182.5,112.8,182,115.1z M188.1,89.7c-0.6,2.4-1.3,4.9-2,7.6
		c2.8-0.9,5.2-2.1,7.4-3.5c2.1-1.4,3.9-2.8,5.4-4.2c1.4-1.4,2.5-2.8,3.1-4c0.6-1.3,0.8-2.2,0.6-2.9c-0.5-1.1-1.9-1.7-4.3-1.7
		c-1.2,0-2.4,0.1-3.8,0.4c-1.4,0.3-2.9,0.8-4.4,1.6C189.3,85.1,188.7,87.3,188.1,89.7z"/>
	<path fill="#DF4D4E" d="M252.8,79.7c-1.8,0.2-3.7,0.4-5.7,0.6c-0.8,3.4-1.7,7-2.6,10.7s-1.8,7.3-2.6,10.9s-1.6,7.1-2.4,10.6
		c-0.7,3.4-1.4,6.6-2,9.6c-0.1,0.6-0.3,1-0.6,1.1c-0.3,0.2-0.7,0.3-1.2,0.2c-0.5,0-1.1-0.1-1.8-0.3c-0.7-0.2-1.4-0.4-2.3-0.7
		c-0.8-0.2-1.6-0.5-2.3-0.8s-1.3-0.6-1.7-1c-0.5-0.4-0.8-0.9-1-1.4c-0.2-0.6-0.2-1.2-0.1-2c0.1-2,0.4-4.4,0.7-7.2s0.8-5.9,1.3-9.1
		s1.1-6.4,1.7-9.7c0.6-3.3,1.2-6.3,1.8-9c-1.2,0.2-2.3,0.4-3.4,0.5c-1.1,0.1-2,0.3-2.7,0.5c-1,0.2-1.8,0.3-2.5,0.1s-1.4-0.7-2.2-1.6
		s-1.6-1.9-2.3-3.3c-0.7-1.3-1.3-2.4-1.7-3.3c-0.5-0.9-0.6-1.6-0.4-1.9c0.2-0.3,0.7-0.6,1.5-0.8c2.4-0.5,5-0.9,8-1.3s6-0.8,9.1-1.1
		c3.1-0.3,6.2-0.6,9.1-0.8c3-0.2,5.7-0.4,8-0.5c1.2,0,2.1,0.1,2.7,0.3c0.5,0.2,1,0.6,1.4,1.1c0.8,0.9,1.5,2,2,3.1s0.9,2.2,1.2,3.2
		c0.2,0.9,0.2,1.6,0,1.9s-1,0.6-2.2,0.6C256.3,79.4,254.6,79.5,252.8,79.7z"/>
</g>
</svg>
