<?xml version="1.0" encoding="utf-8"?>
<!-- Generator: Adobe Illustrator 22.0.1, SVG Export Plug-In . SVG Version: 6.00 Build 0)  -->
<svg version="1.1" id="Layer_1" xmlns="http://www.w3.org/2000/svg" xmlns:xlink="http://www.w3.org/1999/xlink" x="0px" y="0px"
	 viewBox="0 0 82.2 43.4" enable-background="new 0 0 82.2 43.4" xml:space="preserve">
<title>logo_small</title>
<g enable-background="new    ">
	<path fill="#FFFFFF" d="M4.4,16.4c-0.1,0.7-0.2,1.4-0.4,2.1c-0.1,0.2-0.2,0.4-0.3,0.4C3.6,19,3.3,19,3,18.9c-0.4-0.1-0.7-0.2-1-0.3
		c-0.3-0.1-0.6-0.2-0.9-0.3S0.6,18,0.5,17.8s-0.2-0.5-0.1-0.9c0.1-0.3,0.2-0.9,0.3-1.7s0.2-1.7,0.3-2.6c0.1-1,0.2-2,0.2-3.1
		s0.2-2,0.2-2.9S1.6,5,1.7,4.3s0.2-0.9,0.4-1c0.6-0.2,1.2-0.5,1.8-0.8s1.3-0.6,1.9-0.8c0.7-0.2,1.3-0.4,2-0.6s1.3-0.2,1.9-0.3
		c0.6,0,1.2,0.1,1.7,0.2s1,0.4,1.4,0.8c0.5,0.5,0.9,1.1,1.3,1.7c0.4,0.6,0.7,1.3,0.9,2.2c0.1,0.4,0.1,0.8,0.1,1.2
		c0,0.4-0.1,0.7-0.3,1s-0.4,0.6-0.6,0.9c-0.2,0.3-0.5,0.6-0.8,0.9c-0.5,0.5-1,0.9-1.7,1.3s-1.3,0.8-2.1,1.2s-1.6,0.7-2.4,1
		S5.5,13.8,4.7,14C4.7,14.9,4.6,15.7,4.4,16.4z M8.3,9.2C9,8.7,9.6,8.3,10.1,7.8s0.8-0.9,1-1.4c0.2-0.4,0.2-0.8,0.1-1.1
		c0-0.2-0.2-0.3-0.4-0.4c-0.3-0.1-0.6-0.1-1-0.1S9,4.9,8.5,5C8,5.2,7.5,5.3,7,5.6C6.8,6.3,6.6,7,6.4,7.8C6.2,8.6,6,9.4,5.8,10.3
		C6.7,10,7.6,9.6,8.3,9.2z"/>
	<path fill="#FFFFFF" d="M21.5,3c0.1,0.2,0.1,0.5,0,0.8c-0.2,0.6-0.4,1.3-0.6,2.1s-0.4,1.6-0.7,2.5s-0.4,1.8-0.7,2.7
		s-0.4,1.8-0.6,2.7s-0.4,1.7-0.6,2.5c-0.2,0.8-0.3,1.5-0.4,2.1c-0.1,0.2-0.2,0.4-0.3,0.4c-0.1,0.1-0.3,0.1-0.7,0
		c-0.4-0.1-0.7-0.2-1-0.3s-0.6-0.2-0.9-0.4c-0.3-0.1-0.5-0.3-0.6-0.5s-0.1-0.5-0.1-0.8c0-0.5,0.1-1.1,0.2-1.8s0.2-1.6,0.3-2.5
		s0.3-1.8,0.4-2.8c0.2-1,0.3-2,0.5-2.9c0.2-1,0.3-1.9,0.5-2.7c0.2-0.8,0.3-1.6,0.5-2.2c0.1-0.4,0.3-0.6,0.5-0.7s0.5-0.1,0.9,0.1
		c0.4,0.1,0.9,0.3,1.4,0.5C20,2,20.4,2.2,20.8,2.5C21.2,2.6,21.4,2.8,21.5,3z"/>
	<path fill="#FFFFFF" d="M30.4,3.4c0.7-0.9,1.4-1.7,1.9-2.3c0.3-0.3,0.6-0.5,0.8-0.5c0.1,0,0.3,0,0.4,0.1c0.1,0.1,0.3,0.1,0.4,0.2
		c0.4,0.3,0.8,0.6,1.1,0.9s0.5,0.7,0.7,1c0.2,0.4,0.3,0.7,0.2,1s-0.2,0.6-0.5,0.9c-0.7,0.9-1.6,1.8-2.5,2.9S31,9.9,30,11.1
		c0.6,1.4,1.1,2.6,1.6,3.8c0.5,1.2,0.9,2.2,1.3,3.1c0.3,0.5,0.2,0.8-0.4,0.8c-0.7,0.1-1.4,0.1-2.1,0c-0.4,0-0.7-0.1-0.9-0.3
		s-0.4-0.4-0.7-0.7c-0.2-0.2-0.4-0.7-0.7-1.3c-0.3-0.6-0.7-1.4-1.1-2.3c-0.7,0.9-1.4,1.7-2,2.5c-0.6,0.8-1.1,1.5-1.6,2
		c-0.3,0.4-0.8,0.4-1.3,0.1c-0.2-0.1-0.4-0.2-0.6-0.4s-0.4-0.3-0.6-0.5s-0.4-0.4-0.5-0.5c-0.1-0.2-0.2-0.3-0.2-0.4s0-0.2,0.1-0.3
		c0-0.1,0.1-0.3,0.2-0.4c0.5-0.8,1.1-1.7,1.9-2.8s1.7-2.3,2.6-3.5c-0.3-0.7-0.7-1.4-1-2.1s-0.6-1.4-0.9-2c-0.3-0.7-0.6-1.3-0.8-1.8
		C22,3.5,21.8,3,21.7,2.6c-0.2-0.4-0.2-0.7-0.1-0.9s0.3-0.3,0.7-0.3c0.1,0,0.2,0,0.3,0s0.2,0,0.3,0h0.6c0.2,0,0.4,0,0.6,0
		s0.4,0,0.7,0c0.5,0.1,0.8,0.2,1.1,0.5c0.3,0.2,0.5,0.6,0.7,0.9c0.2,0.6,0.5,1.2,0.7,1.8c0.3,0.6,0.5,1.3,0.8,2
		C28.9,5.3,29.7,4.3,30.4,3.4z"/>
	<path fill="#FFFFFF" d="M39.1,1.8c0.7-0.2,1.5-0.3,2.2-0.4s1.6-0.3,2.4-0.4c0.8-0.1,1.6-0.2,2.5-0.2c0.8,0,1.3,0.3,1.5,0.9
		C47.9,2,48,2.3,48.1,2.6c0.1,0.3,0.1,0.6,0.2,0.9c0.1,0.4,0,0.6-0.1,0.7s-0.4,0.2-0.8,0.3c-0.8,0.1-1.7,0.2-2.5,0.3
		C44,4.9,43.1,5,42.1,5.1c-0.2,0.6-0.4,1.2-0.6,1.9c-0.2,0.7-0.4,1.3-0.6,2.1C41.3,9,41.7,9,42.1,9s0.8,0,1.3-0.1
		c0.4,0,0.7,0,0.9,0.1s0.4,0.3,0.6,0.5c0.2,0.3,0.3,0.5,0.4,0.8c0.1,0.3,0.2,0.5,0.2,0.8c0.1,0.3,0.1,0.5,0,0.6s-0.3,0.2-0.7,0.3
		c-0.8,0.1-1.6,0.3-2.5,0.4c-0.8,0.1-1.7,0.3-2.5,0.4c-0.1,0.4-0.2,0.8-0.3,1.2s-0.2,0.8-0.3,1.2c0.6-0.1,1.2-0.2,1.8-0.3
		s1.2-0.1,1.9-0.2c0.4,0,0.7,0,0.9,0.1s0.4,0.2,0.5,0.5c0.2,0.3,0.3,0.5,0.4,0.8c0.1,0.2,0.2,0.5,0.3,0.7c0.1,0.3,0.1,0.5,0,0.6
		s-0.3,0.2-0.7,0.3c-0.9,0.2-1.8,0.3-2.6,0.5s-1.8,0.3-2.6,0.5c-0.5,0.1-1,0.2-1.2,0.1c-0.3-0.1-0.5-0.2-0.7-0.3
		c-0.2-0.1-0.5-0.3-0.7-0.5s-0.5-0.4-0.7-0.6s-0.4-0.4-0.5-0.7s-0.2-0.6-0.2-0.9L37,2.3C37.7,2.1,38.4,1.9,39.1,1.8z"/>
	<path fill="#FFFFFF" d="M53.2,18.2c-0.9,0.2-1.8,0.3-2.6,0.5c-0.3,0.1-0.5,0.1-0.8,0.1s-0.4,0-0.5,0c-0.2,0-0.3-0.1-0.4-0.1
		c-0.1-0.1-0.2-0.1-0.3-0.2c-0.2-0.1-0.4-0.3-0.6-0.5c-0.2-0.2-0.4-0.4-0.8-0.6c-0.2-0.2-0.4-0.4-0.5-0.6s-0.2-0.5-0.1-0.9
		c0-0.5,0.1-1.2,0.2-1.9c0.1-0.7,0.2-1.5,0.3-2.4c0.1-0.8,0.3-1.7,0.4-2.6s0.3-1.8,0.5-2.7s0.4-1.8,0.6-2.6c0.4-0.8,0.6-1.5,0.8-2.2
		c0.1-0.4,0.3-0.6,0.5-0.7s0.5-0.1,0.9,0.1c0.4,0.1,0.9,0.3,1.4,0.5s0.9,0.4,1.3,0.7c0.4,0.3,0.6,0.5,0.7,0.7
		c0.1,0.2,0.1,0.5-0.1,0.8c-0.3,0.8-0.5,1.7-0.8,2.7s-0.6,2-0.8,3c-0.3,1-0.5,2.1-0.8,3.1s-0.5,2-0.7,2.9c0.6-0.1,1.2-0.2,1.8-0.2
		s1.1-0.1,1.8-0.1c0.4,0,0.7,0,0.9,0.1s0.4,0.2,0.5,0.5c0.2,0.2,0.3,0.5,0.4,0.7c0.1,0.3,0.2,0.5,0.2,0.7c0.1,0.3,0.1,0.5,0.1,0.6
		s-0.3,0.2-0.7,0.3C55,17.8,54.1,18,53.2,18.2z"/>
</g>
<g enable-background="new    ">
	<path fill="#FFFFFF" d="M3.9,26.2c0.7-0.2,1.5-0.3,2.2-0.4c0.8-0.1,1.6-0.3,2.4-0.4s1.6-0.2,2.5-0.2c0.8,0,1.3,0.3,1.5,0.9
		c0.2,0.3,0.3,0.6,0.4,0.9s0.1,0.6,0.2,0.9c0.1,0.4,0,0.6-0.1,0.7s-0.4,0.2-0.8,0.3c-0.8,0.1-1.7,0.2-2.5,0.3
		c-0.9,0.1-1.8,0.2-2.8,0.3c-0.2,0.6-0.4,1.2-0.6,1.9c-0.1,0.7-0.3,1.3-0.5,2.1c0.4-0.1,0.8-0.1,1.2-0.1c0.4,0,0.8,0,1.3-0.1
		c0.4,0,0.7,0,0.9,0.1s0.4,0.3,0.6,0.5c0.2,0.3,0.3,0.5,0.4,0.8c0.1,0.3,0.2,0.5,0.2,0.8c0.1,0.3,0.1,0.5,0,0.6s-0.3,0.2-0.7,0.3
		c-0.8,0.1-1.6,0.3-2.5,0.4c-0.8,0.1-1.7,0.3-2.5,0.4c-0.1,0.4-0.2,0.8-0.3,1.2c-0.1,0.4-0.2,0.8-0.3,1.2c0.6-0.1,1.2-0.2,1.8-0.3
		s1.2-0.1,1.9-0.2c0.4,0,0.7,0,0.9,0.1s0.4,0.2,0.5,0.5c0.2,0.3,0.3,0.5,0.4,0.8c0.1,0.2,0.2,0.5,0.3,0.7c0.1,0.3,0.1,0.5,0,0.6
		S9.6,42,9.2,42.1c-0.9,0.2-1.8,0.3-2.6,0.5S4.8,42.9,4,43.1c-0.5,0.1-1,0.2-1.2,0.1c-0.3-0.1-0.5-0.2-0.7-0.3s-0.5-0.3-0.7-0.5
		S0.9,42,0.7,41.8c-0.2-0.2-0.4-0.4-0.5-0.7S0,40.6,0,40.3l1.9-13.5C2.5,26.6,3.2,26.4,3.9,26.2z"/>
	<path fill="#FFFFFF" d="M21.4,27.9c0.7-0.9,1.4-1.7,1.9-2.3c0.3-0.3,0.6-0.5,0.8-0.5c0.1,0,0.3,0,0.4,0.1s0.3,0.1,0.4,0.2
		c0.3,0.2,0.6,0.5,0.9,0.9s0.5,0.7,0.7,1c0.2,0.4,0.3,0.7,0.2,1s-0.2,0.6-0.5,0.9c-0.7,0.9-1.6,1.8-2.5,2.9C23,33.2,22,34.3,21,35.5
		c0.6,1.4,1.1,2.6,1.6,3.8s0.9,2.2,1.3,3.1c0.3,0.5,0.2,0.8-0.4,0.8c-0.7,0.1-1.4,0.1-2.1,0c-0.4,0-0.7-0.1-0.9-0.3
		s-0.4-0.4-0.7-0.7c-0.2-0.2-0.4-0.7-0.7-1.3c-0.3-0.6-0.7-1.4-1.1-2.3c-0.7,0.9-1.4,1.7-2,2.5s-1.1,1.5-1.6,2
		c-0.3,0.4-0.8,0.4-1.3,0.1c-0.2-0.1-0.4-0.2-0.6-0.4s-0.4-0.3-0.6-0.5c-0.2-0.2-0.4-0.4-0.5-0.5c-0.1-0.2-0.2-0.3-0.2-0.4
		c0-0.1,0-0.2,0.1-0.3c0-0.1,0.1-0.3,0.2-0.4c0.5-0.8,1.1-1.7,1.9-2.8c0.8-1.1,1.7-2.3,2.6-3.5c-0.3-0.7-0.7-1.4-1-2.1
		c-0.3-0.7-0.6-1.4-0.9-2c-0.3-0.7-0.6-1.3-0.8-1.8c-0.3-0.6-0.5-1.1-0.6-1.5c-0.2-0.4-0.2-0.7-0.1-0.9s0.3-0.3,0.7-0.3
		c0.1,0,0.2,0,0.3,0s0.2,0,0.3,0h0.6c0.2,0,0.4,0,0.6,0s0.4,0,0.7,0c0.5,0.1,0.8,0.2,1.1,0.5c0.3,0.2,0.5,0.6,0.7,0.9
		c0.2,0.6,0.5,1.2,0.7,1.8c0.3,0.6,0.5,1.3,0.8,2C19.9,29.8,20.6,28.8,21.4,27.9z"/>
	<path fill="#FFFFFF" d="M30.6,40.8c-0.1,0.7-0.3,1.4-0.4,2.1c-0.1,0.2-0.2,0.4-0.3,0.4c-0.1,0.1-0.4,0.1-0.7,0
		c-0.4-0.1-0.7-0.2-1-0.3s-0.6-0.2-0.9-0.3s-0.5-0.3-0.6-0.5s-0.2-0.5-0.1-0.9c0.1-0.3,0.2-0.9,0.3-1.7s0.2-1.7,0.3-2.6
		c0.1-1,0.2-2,0.2-3.1s0.2-2,0.2-2.9s0.2-1.6,0.3-2.3s0.2-0.9,0.4-1c0.5-0.3,1.1-0.6,1.7-0.8c0.6-0.3,1.3-0.6,1.9-0.8
		c0.7-0.2,1.3-0.4,2-0.6s1.3-0.2,1.9-0.3c0.6,0,1.2,0.1,1.7,0.2s1,0.4,1.4,0.8c0.5,0.5,0.9,1.1,1.3,1.7c0.4,0.6,0.7,1.3,0.9,2.2
		c0.1,0.4,0.1,0.8,0.1,1.2s-0.1,0.7-0.3,1s-0.4,0.6-0.6,0.9c-0.2,0.3-0.5,0.6-0.8,0.9c-0.5,0.5-1,0.9-1.7,1.3s-1.3,0.8-2.1,1.2
		s-1.6,0.7-2.4,1c-0.8,0.3-1.7,0.6-2.5,0.8C30.9,39.4,30.7,40.1,30.6,40.8z M34.5,33.6c0.7-0.4,1.3-0.9,1.8-1.4s0.8-0.9,1-1.4
		c0.2-0.4,0.2-0.8,0.1-1.1c0-0.2-0.2-0.3-0.4-0.4c-0.3-0.1-0.6-0.1-1-0.1s-0.8,0.1-1.3,0.2s-1,0.3-1.5,0.5c-0.2,0.7-0.4,1.5-0.6,2.3
		c-0.2,0.8-0.4,1.6-0.6,2.5C32.9,34.5,33.7,34.1,34.5,33.6z"/>
	<path fill="#FFFFFF" d="M44.5,26.2c0.7-0.2,1.5-0.3,2.2-0.4c0.8-0.1,1.6-0.3,2.4-0.4c0.8-0.1,1.6-0.2,2.5-0.2
		c0.8,0,1.3,0.3,1.5,0.9c0.2,0.3,0.3,0.6,0.4,0.9c0.1,0.3,0.1,0.6,0.2,0.9c0.1,0.4,0,0.6-0.1,0.7s-0.4,0.2-0.8,0.3
		c-0.8,0.1-1.7,0.2-2.5,0.3c-0.9,0.1-1.8,0.2-2.8,0.3c-0.2,0.6-0.4,1.2-0.6,1.9c-0.2,0.7-0.4,1.3-0.6,2.1c0.4-0.1,0.8-0.1,1.2-0.1
		s0.8,0,1.3-0.1c0.4,0,0.7,0,0.9,0.1s0.4,0.3,0.5,0.5c0.2,0.3,0.3,0.5,0.4,0.8c0.1,0.3,0.2,0.5,0.2,0.8c0.1,0.3,0.1,0.5,0,0.6
		s-0.3,0.2-0.7,0.3c-0.8,0.1-1.6,0.3-2.5,0.4c-0.8,0.1-1.7,0.3-2.5,0.4c-0.1,0.4-0.2,0.8-0.3,1.2s-0.2,0.8-0.3,1.2
		c0.6-0.1,1.2-0.2,1.8-0.3s1.2-0.1,1.9-0.2c0.4,0,0.7,0,0.9,0.1s0.4,0.2,0.5,0.5c0.2,0.3,0.3,0.5,0.4,0.8c0.1,0.2,0.2,0.5,0.3,0.7
		c0.1,0.3,0.1,0.5,0,0.6S50,42,49.6,42.1c-0.9,0.2-1.8,0.3-2.6,0.5s-1.8,0.3-2.6,0.5c-0.5,0.1-1,0.2-1.2,0.1
		c-0.3-0.1-0.5-0.2-0.7-0.3s-0.5-0.3-0.7-0.5s-0.5-0.4-0.7-0.6c-0.2-0.2-0.4-0.4-0.5-0.7s-0.2-0.6-0.2-0.9l1.9-13.5
		C43.1,26.6,43.8,26.4,44.5,26.2z"/>
	<path fill="#FFFFFF" d="M56.6,40.6c-0.2,0.8-0.3,1.5-0.5,2.2c-0.1,0.2-0.2,0.4-0.3,0.4s-0.3,0.1-0.6,0c-0.4-0.1-0.7-0.2-1-0.2
		c-0.3-0.1-0.6-0.1-0.8-0.3c-0.3-0.1-0.4-0.3-0.5-0.5s-0.1-0.5-0.1-0.8s0.1-0.7,0.1-1.2s0.1-1.2,0.2-1.8c0.1-0.7,0.1-1.4,0.2-2.2
		c0.1-0.8,0.2-1.6,0.3-2.4c0.1-0.8,0.2-1.6,0.3-2.3s0.3-1.4,0.4-2s0.3-1.1,0.4-1.5c0.2-0.4,0.3-0.6,0.5-0.7c0.8-0.4,1.7-0.8,2.6-1.1
		c0.9-0.4,1.8-0.6,2.7-0.8c0.9-0.2,1.7-0.2,2.5,0c0.8,0.1,1.5,0.5,2.1,1.1c0.5,0.5,0.9,1.1,1.3,1.7s0.7,1.3,0.9,2.2
		c0.2,0.9,0.1,1.7-0.2,2.2c-0.5,0.9-1.3,1.8-2.4,2.6s-2.4,1.5-3.9,2.2c0.3,0.4,0.7,0.7,1,1.1c0.4,0.4,0.8,0.8,1.2,1.2
		s0.8,0.8,1.2,1.1c0.4,0.4,0.8,0.7,1.1,1c0.3,0.2,0.4,0.4,0.4,0.5s-0.1,0.3-0.3,0.4c-0.2,0.2-0.5,0.3-0.6,0.3
		c-0.2,0-0.4,0.1-0.6,0.1c-0.3,0.1-0.6,0.1-1,0.1s-0.8-0.2-1.3-0.5c-0.3-0.2-0.7-0.5-1.1-0.8c-0.4-0.3-0.8-0.7-1.3-1.1
		c-0.4-0.4-0.9-0.8-1.3-1.2c-0.4-0.4-0.8-0.9-1.2-1.3C57,39,56.8,39.8,56.6,40.6z M58.7,32.1c-0.2,0.8-0.4,1.6-0.7,2.5
		c0.9-0.3,1.8-0.7,2.5-1.2s1.3-0.9,1.8-1.4s0.8-0.9,1.1-1.3c0.2-0.4,0.3-0.7,0.2-1c-0.2-0.4-0.6-0.6-1.4-0.6c-0.4,0-0.8,0-1.3,0.1
		s-1,0.3-1.5,0.5C59.1,30.6,58.9,31.4,58.7,32.1z"/>
	<path fill="#FFFFFF" d="M79.6,28.8c-0.6,0.1-1.3,0.1-1.9,0.2c-0.3,1.1-0.6,2.3-0.9,3.5s-0.6,2.4-0.9,3.6s-0.6,2.4-0.8,3.5
		c-0.3,1.1-0.5,2.2-0.7,3.2c0,0.2-0.1,0.3-0.2,0.4c-0.1,0.1-0.2,0.1-0.4,0.1s-0.4,0-0.6-0.1s-0.5-0.1-0.8-0.2
		c-0.3-0.1-0.5-0.2-0.8-0.3c-0.2-0.1-0.4-0.2-0.6-0.3s-0.3-0.3-0.3-0.5c-0.1-0.2-0.1-0.4,0-0.7c0-0.7,0.1-1.5,0.2-2.4
		c0.1-1,0.3-2,0.4-3c0.2-1.1,0.4-2.1,0.6-3.2c0.2-1.1,0.4-2.1,0.6-3c-0.4,0.1-0.8,0.1-1.1,0.2c-0.4,0-0.7,0.1-0.9,0.2
		c-0.3,0.1-0.6,0.1-0.8,0c-0.2-0.1-0.5-0.2-0.7-0.5c-0.3-0.3-0.5-0.6-0.8-1.1c-0.2-0.4-0.4-0.8-0.6-1.1c-0.2-0.3-0.2-0.5-0.1-0.6
		s0.3-0.2,0.5-0.3c0.8-0.2,1.7-0.3,2.7-0.4s2-0.3,3.1-0.4s2.1-0.2,3.1-0.3c1-0.1,1.9-0.1,2.7-0.2c0.4,0,0.7,0,0.9,0.1
		c0.2,0.1,0.3,0.2,0.5,0.4c0.3,0.3,0.5,0.7,0.7,1c0.2,0.4,0.3,0.7,0.4,1.1c0.1,0.3,0.1,0.5,0,0.6s-0.3,0.2-0.7,0.2
		C80.8,28.7,80.3,28.8,79.6,28.8z"/>
</g>
</svg>
