<?xml version="1.0" encoding="utf-8"?>
<!-- Generator: Adobe Illustrator 20.0.0, SVG Export Plug-In . SVG Version: 6.00 Build 0)  -->
<svg version="1.1" id="Layer_1" xmlns="http://www.w3.org/2000/svg" xmlns:xlink="http://www.w3.org/1999/xlink" x="0px" y="0px"
	 viewBox="0 0 29 32" style="enable-background:new 0 0 29 32;" xml:space="preserve">
<style type="text/css">
	.st0{fill:#ACD377;}
</style>
<path class="st0" d="M26.3,14.5C26.3,14.5,26.3,14.5,26.3,14.5c-0.8-1.6-1.9-3.1-3.3-4.3c2-1.9,4.3-2.6,5.2-1.7
	C29.3,9.6,28.5,12.2,26.3,14.5z M18.8,5.1c0,0.9-0.2,1.3-0.5,2.6c-1.1-0.3-2.2-0.5-3.4-0.5c-1.2,0-2.3,0.2-3.4,0.5
	C11.1,6.3,10.9,7,10.9,6c0-0.3,0-0.6,0-0.9c-0.4-0.3-0.7-0.9-0.7-1.4c0-1,0.8-1.8,1.8-1.8C12.7,0.7,13.7,0,14.8,0
	c1.1,0,2.1,0.7,2.8,1.8c1,0,1.8,0.8,1.8,1.8C19.4,4.2,19.2,4.7,18.8,5.1z M12.1,2.5c-0.6,0-1.2,0.5-1.2,1.2c0,0.6,0.5,1.2,1.2,1.2
	c0.6,0,1.2-0.5,1.2-1.2C13.2,3,12.7,2.5,12.1,2.5z M18.7,5.1C18.7,5.1,18.7,5.1,18.7,5.1C18.7,5.2,18.7,5.2,18.7,5.1z M17.6,2.5
	c-0.6,0-1.2,0.5-1.2,1.2c0,0.6,0.5,1.2,1.2,1.2c0.6,0,1.2-0.5,1.2-1.2C18.7,3,18.2,2.5,17.6,2.5z M3.3,14.5
	C3.3,14.5,3.3,14.5,3.3,14.5c-2.2-2.3-3-5-2-6c1-0.9,3.2-0.1,5.2,1.7C5.3,11.4,4.1,12.9,3.3,14.5z M6.6,29.6c-2,1.8-4.2,2.6-5.2,1.7
	c-1.1-1-0.2-3.7,1.9-5.9C4.1,27,5.2,28.4,6.6,29.6z M4.9,26.3l4.8-2.7l4.8,2.8v5.4C10.4,31.6,6.9,29.5,4.9,26.3z M4.4,25.5
	C3.6,23.9,3.1,22,3.1,20c0-2,0.5-3.8,1.3-5.4l4.8,2.8v5.5L4.4,25.5z M14.4,8.2v5.4l-4.8,2.8l-4.8-2.7C6.9,10.5,10.4,8.3,14.4,8.2z
	 M10,17.3l4.8-2.8l4.8,2.8v5.5l-4.8,2.8L10,22.8V17.3z M24.8,26.2c-2,3.2-5.5,5.3-9.5,5.5v-5.4l4.8-2.8L24.8,26.2z M15.3,13.6V8.2
	c4,0.2,7.5,2.3,9.5,5.5l-4.7,2.7L15.3,13.6z M26.6,20c0,2-0.5,3.9-1.4,5.6l-4.7-2.7v-5.5l4.8-2.8C26.1,16.1,26.6,18,26.6,20z
	 M26.4,25.3c2.1,2.3,3,4.9,1.9,5.9c-1,0.9-3.2,0.2-5.2-1.7C24.5,28.4,25.6,27,26.4,25.3z"/>
</svg>
